<svg width="23" height="23" viewBox="0 0 23 23" fill="none" xmlns="http://www.w3.org/2000/svg">
<mask id="mask0_30_1535" style="mask-type:alpha" maskUnits="userSpaceOnUse" x="0" y="0" width="23" height="23">
<rect x="23" width="23" height="23" transform="rotate(90 23 0)" fill="#D9D9D9"/>
</mask>
<g mask="url(#mask0_30_1535)">
<path d="M1.91659 8.14582L3.35409 8.14582L4.79159 10.0625L10.0624 10.0625L7.66659 1.91666L9.58325 1.91666L14.3749 10.0625L19.6458 10.0625C20.0451 10.0625 20.3843 10.2024 20.6635 10.4822C20.9433 10.7614 21.0833 11.1007 21.0833 11.5C21.0833 11.8993 20.9433 12.2385 20.6635 12.5177C20.3843 12.7976 20.0451 12.9375 19.6458 12.9375L14.3749 12.9375L9.58325 21.0833L7.66659 21.0833L10.0624 12.9375L4.79159 12.9375L3.35409 14.8542L1.91659 14.8542L2.87492 11.5L1.91659 8.14582Z" fill="white"/>
</g>
</svg>
