<svg width="22" height="22" viewBox="0 0 22 22" fill="none" xmlns="http://www.w3.org/2000/svg">
<mask id="mask0_24_269" style="mask-type:alpha" maskUnits="userSpaceOnUse" x="0" y="0" width="22" height="22">
<rect width="22" height="22" fill="#D9D9D9"/>
</mask>
<g mask="url(#mask0_24_269)">
<path d="M2.97918 8.84583C2.87223 8.76944 2.80745 8.6738 2.78484 8.55891C2.76162 8.44464 2.79584 8.32639 2.88751 8.20416C3.83473 6.90555 5.02243 5.89722 6.45059 5.17916C7.87937 4.46111 9.40348 4.10208 11.0229 4.10208C12.6424 4.10208 14.1701 4.4495 15.6063 5.14433C17.0424 5.83977 18.2417 6.84444 19.2042 8.15833C19.2958 8.29583 19.3264 8.41805 19.2958 8.525C19.2653 8.63194 19.2042 8.72361 19.1125 8.8C19.0208 8.87639 18.9139 8.91061 18.7917 8.90266C18.6695 8.89533 18.5625 8.83055 18.4708 8.70833C17.6306 7.51666 16.5498 6.60366 15.2286 5.96933C13.9068 5.33561 12.5049 5.01875 11.0229 5.01875C9.54098 5.01875 8.1507 5.33561 6.85209 5.96933C5.55348 6.60366 4.4764 7.51666 3.62084 8.70833C3.52918 8.84583 3.42223 8.92222 3.30001 8.9375C3.17779 8.95278 3.07084 8.92222 2.97918 8.84583ZM13.6125 20.1437C12.0236 19.7465 10.725 18.9557 9.71668 17.7714C8.70834 16.5877 8.20418 15.1403 8.20418 13.4292C8.20418 12.6653 8.47918 12.0236 9.02918 11.5042C9.57918 10.9847 10.2438 10.725 11.0229 10.725C11.8021 10.725 12.4667 10.9847 13.0167 11.5042C13.5667 12.0236 13.8417 12.6653 13.8417 13.4292C13.8417 13.9333 14.0326 14.3574 14.4146 14.7015C14.7965 15.0449 15.2472 15.2167 15.7667 15.2167C16.2861 15.2167 16.7292 15.0449 17.0958 14.7015C17.4625 14.3574 17.6458 13.9333 17.6458 13.4292C17.6458 11.6569 16.9965 10.1674 15.6979 8.96041C14.3993 7.75347 12.8486 7.15 11.0458 7.15C9.24306 7.15 7.69237 7.75347 6.39376 8.96041C5.09515 10.1674 4.44584 11.6493 4.44584 13.4062C4.44584 13.7729 4.48037 14.2312 4.54943 14.7812C4.61787 15.3312 4.78195 15.9729 5.04168 16.7062C5.08751 16.8437 5.08384 16.966 5.03068 17.0729C4.9769 17.1799 4.8889 17.2562 4.76668 17.3021C4.64445 17.3479 4.5259 17.3439 4.41101 17.2902C4.29673 17.237 4.21668 17.1493 4.17084 17.0271C3.94168 16.4312 3.77759 15.8391 3.67859 15.2506C3.57898 14.6627 3.52918 14.0556 3.52918 13.4292C3.52918 11.3972 4.26648 9.69375 5.74109 8.31875C7.21509 6.94375 8.9757 6.25625 11.0229 6.25625C13.0854 6.25625 14.8576 6.94375 16.3396 8.31875C17.8215 9.69375 18.5625 11.3972 18.5625 13.4292C18.5625 14.1931 18.2915 14.8311 17.7494 15.3432C17.2068 15.8547 16.5458 16.1104 15.7667 16.1104C14.9875 16.1104 14.3193 15.8547 13.7619 15.3432C13.204 14.8311 12.925 14.1931 12.925 13.4292C12.925 12.925 12.738 12.5009 12.364 12.1568C11.9894 11.8134 11.5424 11.6417 11.0229 11.6417C10.5035 11.6417 10.0565 11.8134 9.68184 12.1568C9.30784 12.5009 9.12084 12.925 9.12084 13.4292C9.12084 14.9111 9.56023 16.1486 10.439 17.1417C11.3172 18.1347 12.4514 18.8299 13.8417 19.2271C13.9792 19.2729 14.0708 19.3493 14.1167 19.4562C14.1625 19.5632 14.1701 19.6778 14.1396 19.8C14.109 19.9069 14.0479 19.9986 13.9563 20.075C13.8646 20.1514 13.75 20.1743 13.6125 20.1437ZM5.95834 4.05625C5.83612 4.13264 5.7139 4.15158 5.59168 4.11308C5.46945 4.07519 5.37779 3.99514 5.31668 3.87291C5.25556 3.75069 5.24029 3.63977 5.27084 3.54016C5.3014 3.44116 5.37779 3.35347 5.50001 3.27708C6.35556 2.81875 7.24931 2.46736 8.18126 2.22291C9.1132 1.97847 10.0604 1.85625 11.0229 1.85625C12.0007 1.85625 12.9556 1.9745 13.8875 2.211C14.8195 2.44811 15.7208 2.78819 16.5917 3.23125C16.7292 3.30764 16.8095 3.3993 16.8328 3.50625C16.8554 3.61319 16.8438 3.72014 16.7979 3.82708C16.7521 3.93402 16.6757 4.01805 16.5688 4.07916C16.4618 4.14027 16.332 4.13264 16.1792 4.05625C15.3695 3.64375 14.5328 3.32658 13.6693 3.10475C12.8065 2.88352 11.9243 2.77291 11.0229 2.77291C10.1368 2.77291 9.26598 2.87589 8.41043 3.08183C7.55487 3.28839 6.73751 3.61319 5.95834 4.05625ZM8.66251 19.8229C7.76112 18.8757 7.06995 17.9092 6.58901 16.9235C6.10745 15.9384 5.86668 14.7736 5.86668 13.4292C5.86668 12.0389 6.37084 10.8662 7.37918 9.911C8.38751 8.95644 9.60209 8.47916 11.0229 8.47916C12.4438 8.47916 13.666 8.95644 14.6896 9.911C15.7132 10.8662 16.225 12.0389 16.225 13.4292C16.225 13.5667 16.1828 13.6773 16.0985 13.761C16.0148 13.8453 15.9042 13.8875 15.7667 13.8875C15.6445 13.8875 15.5375 13.8453 15.4458 13.761C15.3542 13.6773 15.3083 13.5667 15.3083 13.4292C15.3083 12.2833 14.8842 11.3245 14.036 10.5527C13.1884 9.78144 12.184 9.39583 11.0229 9.39583C9.86181 9.39583 8.86479 9.78144 8.03184 10.5527C7.19951 11.3245 6.78334 12.2833 6.78334 13.4292C6.78334 14.6667 6.99723 15.7169 7.42501 16.5797C7.85279 17.4432 8.47918 18.3104 9.30418 19.1812C9.39584 19.2729 9.44168 19.3799 9.44168 19.5021C9.44168 19.6243 9.39584 19.7312 9.30418 19.8229C9.21251 19.9146 9.10556 19.9604 8.98334 19.9604C8.86112 19.9604 8.75418 19.9146 8.66251 19.8229ZM15.5833 18.2646C14.2236 18.2646 13.0433 17.8062 12.0423 16.8896C11.0419 15.9729 10.5417 14.8194 10.5417 13.4292C10.5417 13.3069 10.5835 13.2 10.6673 13.1083C10.7516 13.0167 10.8625 12.9708 11 12.9708C11.1375 12.9708 11.2484 13.0167 11.3328 13.1083C11.4165 13.2 11.4583 13.3069 11.4583 13.4292C11.4583 14.575 11.8708 15.5146 12.6958 16.2479C13.5208 16.9812 14.4833 17.3479 15.5833 17.3479C15.675 17.3479 15.8049 17.3403 15.9729 17.325C16.141 17.3097 16.3167 17.2868 16.5 17.2562C16.6375 17.2257 16.7561 17.2446 16.8557 17.3131C16.9547 17.3821 17.0195 17.4854 17.05 17.6229C17.0806 17.7451 17.0576 17.8521 16.9813 17.9437C16.9049 18.0354 16.8056 18.0965 16.6833 18.1271C16.4083 18.2035 16.1679 18.2456 15.9619 18.2536C15.7554 18.2609 15.6292 18.2646 15.5833 18.2646Z" fill="white"/>
</g>
</svg>
