<svg width="22" height="22" viewBox="0 0 22 22" fill="none" xmlns="http://www.w3.org/2000/svg">
<mask id="mask0_30_1538" style="mask-type:alpha" maskUnits="userSpaceOnUse" x="0" y="0" width="22" height="22">
<rect width="22" height="22" fill="#D9D9D9"/>
</mask>
<g mask="url(#mask0_30_1538)">
<path d="M2.97921 8.84583C2.87226 8.76944 2.80748 8.6738 2.78487 8.55891C2.76165 8.44464 2.79587 8.32639 2.88754 8.20416C3.83476 6.90555 5.02246 5.89722 6.45062 5.17916C7.8794 4.46111 9.40351 4.10208 11.023 4.10208C12.6424 4.10208 14.1702 4.4495 15.6063 5.14433C17.0424 5.83977 18.2417 6.84444 19.2042 8.15833C19.2959 8.29583 19.3264 8.41805 19.2959 8.525C19.2653 8.63194 19.2042 8.72361 19.1125 8.8C19.0209 8.87639 18.9139 8.91061 18.7917 8.90266C18.6695 8.89533 18.5625 8.83055 18.4709 8.70833C17.6306 7.51666 16.5498 6.60366 15.2286 5.96933C13.9068 5.33561 12.5049 5.01875 11.023 5.01875C9.54101 5.01875 8.15073 5.33561 6.85212 5.96933C5.55351 6.60366 4.47643 7.51666 3.62087 8.70833C3.52921 8.84583 3.42226 8.92222 3.30004 8.9375C3.17782 8.95278 3.07087 8.92222 2.97921 8.84583ZM13.6125 20.1437C12.0237 19.7465 10.725 18.9557 9.71671 17.7714C8.70837 16.5877 8.20421 15.1403 8.20421 13.4292C8.20421 12.6653 8.47921 12.0236 9.02921 11.5042C9.57921 10.9847 10.2438 10.725 11.023 10.725C11.8021 10.725 12.4667 10.9847 13.0167 11.5042C13.5667 12.0236 13.8417 12.6653 13.8417 13.4292C13.8417 13.9333 14.0327 14.3574 14.4146 14.7015C14.7966 15.0449 15.2473 15.2167 15.7667 15.2167C16.2862 15.2167 16.7292 15.0449 17.0959 14.7015C17.4625 14.3574 17.6459 13.9333 17.6459 13.4292C17.6459 11.6569 16.9966 10.1674 15.698 8.96041C14.3993 7.75347 12.8487 7.15 11.0459 7.15C9.2431 7.15 7.6924 7.75347 6.39379 8.96041C5.09518 10.1674 4.44587 11.6493 4.44587 13.4062C4.44587 13.7729 4.4804 14.2312 4.54946 14.7812C4.6179 15.3312 4.78198 15.9729 5.04171 16.7062C5.08754 16.8437 5.08387 16.966 5.03071 17.0729C4.97693 17.1799 4.88893 17.2562 4.76671 17.3021C4.64448 17.3479 4.52593 17.3439 4.41104 17.2902C4.29676 17.237 4.21671 17.1493 4.17087 17.0271C3.94171 16.4312 3.77762 15.8391 3.67862 15.2506C3.57901 14.6627 3.52921 14.0556 3.52921 13.4292C3.52921 11.3972 4.26651 9.69375 5.74112 8.31875C7.21512 6.94375 8.97573 6.25625 11.023 6.25625C13.0855 6.25625 14.8577 6.94375 16.3396 8.31875C17.8216 9.69375 18.5625 11.3972 18.5625 13.4292C18.5625 14.1931 18.2915 14.8311 17.7495 15.3432C17.2068 15.8547 16.5459 16.1104 15.7667 16.1104C14.9875 16.1104 14.3193 15.8547 13.762 15.3432C13.204 14.8311 12.925 14.1931 12.925 13.4292C12.925 12.925 12.738 12.5009 12.364 12.1568C11.9894 11.8134 11.5424 11.6417 11.023 11.6417C10.5035 11.6417 10.0565 11.8134 9.68187 12.1568C9.30787 12.5009 9.12087 12.925 9.12087 13.4292C9.12087 14.9111 9.56026 16.1486 10.439 17.1417C11.3172 18.1347 12.4514 18.8299 13.8417 19.2271C13.9792 19.2729 14.0709 19.3493 14.1167 19.4562C14.1625 19.5632 14.1702 19.6778 14.1396 19.8C14.1091 19.9069 14.048 19.9986 13.9563 20.075C13.8646 20.1514 13.75 20.1743 13.6125 20.1437ZM5.95837 4.05625C5.83615 4.13264 5.71393 4.15158 5.59171 4.11308C5.46948 4.07519 5.37782 3.99514 5.31671 3.87291C5.2556 3.75069 5.24032 3.63977 5.27087 3.54016C5.30143 3.44116 5.37782 3.35347 5.50004 3.27708C6.3556 2.81875 7.24935 2.46736 8.18129 2.22291C9.11323 1.97847 10.0605 1.85625 11.023 1.85625C12.0007 1.85625 12.9556 1.9745 13.8875 2.211C14.8195 2.44811 15.7209 2.78819 16.5917 3.23125C16.7292 3.30764 16.8096 3.3993 16.8328 3.50625C16.8554 3.61319 16.8438 3.72014 16.798 3.82708C16.7521 3.93402 16.6757 4.01805 16.5688 4.07916C16.4618 4.14027 16.332 4.13264 16.1792 4.05625C15.3695 3.64375 14.5329 3.32658 13.6694 3.10475C12.8065 2.88352 11.9243 2.77291 11.023 2.77291C10.1368 2.77291 9.26601 2.87589 8.41046 3.08183C7.5549 3.28839 6.73754 3.61319 5.95837 4.05625ZM8.66254 19.8229C7.76115 18.8757 7.06998 17.9092 6.58904 16.9235C6.10748 15.9384 5.86671 14.7736 5.86671 13.4292C5.86671 12.0389 6.37087 10.8662 7.37921 9.911C8.38754 8.95644 9.60212 8.47916 11.023 8.47916C12.4438 8.47916 13.666 8.95644 14.6896 9.911C15.7132 10.8662 16.225 12.0389 16.225 13.4292C16.225 13.5667 16.1829 13.6773 16.0985 13.761C16.0148 13.8453 15.9042 13.8875 15.7667 13.8875C15.6445 13.8875 15.5375 13.8453 15.4459 13.761C15.3542 13.6773 15.3084 13.5667 15.3084 13.4292C15.3084 12.2833 14.8843 11.3245 14.036 10.5527C13.1884 9.78144 12.1841 9.39583 11.023 9.39583C9.86185 9.39583 8.86482 9.78144 8.03187 10.5527C7.19954 11.3245 6.78337 12.2833 6.78337 13.4292C6.78337 14.6667 6.99726 15.7169 7.42504 16.5797C7.85282 17.4432 8.47921 18.3104 9.30421 19.1812C9.39587 19.2729 9.44171 19.3799 9.44171 19.5021C9.44171 19.6243 9.39587 19.7312 9.30421 19.8229C9.21254 19.9146 9.1056 19.9604 8.98337 19.9604C8.86115 19.9604 8.75421 19.9146 8.66254 19.8229ZM15.5834 18.2646C14.2237 18.2646 13.0433 17.8062 12.0423 16.8896C11.0419 15.9729 10.5417 14.8194 10.5417 13.4292C10.5417 13.3069 10.5836 13.2 10.6673 13.1083C10.7516 13.0167 10.8625 12.9708 11 12.9708C11.1375 12.9708 11.2485 13.0167 11.3328 13.1083C11.4165 13.2 11.4584 13.3069 11.4584 13.4292C11.4584 14.575 11.8709 15.5146 12.6959 16.2479C13.5209 16.9812 14.4834 17.3479 15.5834 17.3479C15.675 17.3479 15.8049 17.3403 15.973 17.325C16.141 17.3097 16.3167 17.2868 16.5 17.2562C16.6375 17.2257 16.7561 17.2446 16.8557 17.3131C16.9547 17.3821 17.0195 17.4854 17.05 17.6229C17.0806 17.7451 17.0577 17.8521 16.9813 17.9437C16.9049 18.0354 16.8056 18.0965 16.6834 18.1271C16.4084 18.2035 16.1679 18.2456 15.962 18.2536C15.7554 18.2609 15.6292 18.2646 15.5834 18.2646Z" fill="white"/>
</g>
</svg>
