<svg width="22" height="22" viewBox="0 0 22 22" fill="none" xmlns="http://www.w3.org/2000/svg">
<mask id="mask0_150_1682" style="mask-type:alpha" maskUnits="userSpaceOnUse" x="0" y="0" width="22" height="22">
<rect width="22" height="22" fill="#D9D9D9"/>
</mask>
<g mask="url(#mask0_150_1682)">
<path d="M7.44795 17.7604C7.066 17.7604 6.7412 17.6269 6.47353 17.3598C6.20647 17.0922 6.07295 16.7674 6.07295 16.3854V14.0938H8.70836V11.5729C8.14308 11.6188 7.58942 11.55 7.04736 11.3667C6.5047 11.1833 6.03475 10.8931 5.63753 10.4958V9.35H4.46878L1.69586 6.57708C2.23058 5.98125 2.86858 5.55347 3.60986 5.29375C4.35053 5.03403 5.10281 4.90417 5.8667 4.90417C6.37086 4.90417 6.85975 4.96131 7.33336 5.07558C7.80697 5.19047 8.26531 5.37778 8.70836 5.6375V4.17083H18.7917V15.4688C18.7917 16.1104 18.5702 16.6528 18.1271 17.0958C17.6841 17.5389 17.1417 17.7604 16.5 17.7604H7.44795ZM10.0834 14.0938H15.5834V15.4688C15.5834 15.7285 15.6714 15.946 15.8474 16.1214C16.0228 16.2974 16.2403 16.3854 16.5 16.3854C16.7598 16.3854 16.9773 16.2974 17.1527 16.1214C17.3287 15.946 17.4167 15.7285 17.4167 15.4688V5.54583H10.0834V6.55417L15.3542 11.825V12.7875H14.3917L11.6875 10.0833L11.3438 10.4271C11.1452 10.6257 10.9429 10.7977 10.7369 10.9432C10.5304 11.088 10.3125 11.2063 10.0834 11.2979V14.0938ZM5.0417 7.975H7.01253V9.85417C7.25697 10.0069 7.49775 10.1139 7.73486 10.175C7.97136 10.2361 8.2042 10.2667 8.43336 10.2667C8.81531 10.2667 9.16303 10.2016 9.47653 10.0714C9.78942 9.94186 10.091 9.73958 10.3813 9.46458L10.725 9.12083L9.28128 7.67708C8.80767 7.20347 8.28425 6.85208 7.71103 6.62292C7.13842 6.39375 6.52364 6.27917 5.8667 6.27917C5.48475 6.27917 5.12206 6.31736 4.77861 6.39375C4.43456 6.47014 4.10975 6.57708 3.8042 6.71458L5.0417 7.975Z" fill="white"/>
</g>
</svg>
