<svg width="22" height="22" viewBox="0 0 22 22" fill="none" xmlns="http://www.w3.org/2000/svg">
<mask id="mask0_30_1082" style="mask-type:alpha" maskUnits="userSpaceOnUse" x="0" y="0" width="22" height="22">
<rect width="22" height="22" fill="#D9D9D9"/>
</mask>
<g mask="url(#mask0_30_1082)">
<path d="M7.44788 17.7604C7.06594 17.7604 6.74113 17.6269 6.47347 17.3598C6.20641 17.0922 6.07288 16.7674 6.07288 16.3854V14.0938H8.7083V11.5729C8.14302 11.6188 7.58936 11.55 7.0473 11.3667C6.50463 11.1833 6.03469 10.8931 5.63747 10.4958V9.35H4.46872L1.6958 6.57708C2.23052 5.98125 2.86852 5.55347 3.6098 5.29375C4.35047 5.03403 5.10275 4.90417 5.86663 4.90417C6.3708 4.90417 6.85969 4.96131 7.3333 5.07558C7.80691 5.19047 8.26525 5.37778 8.7083 5.6375V4.17083H18.7916V15.4688C18.7916 16.1104 18.5701 16.6528 18.1271 17.0958C17.684 17.5389 17.1416 17.7604 16.5 17.7604H7.44788ZM10.0833 14.0938H15.5833V15.4688C15.5833 15.7285 15.6713 15.946 15.8473 16.1214C16.0227 16.2974 16.2402 16.3854 16.5 16.3854C16.7597 16.3854 16.9772 16.2974 17.1526 16.1214C17.3286 15.946 17.4166 15.7285 17.4166 15.4688V5.54583H10.0833V6.55417L15.3541 11.825V12.7875H14.3916L11.6875 10.0833L11.3437 10.4271C11.1451 10.6257 10.9428 10.7977 10.7369 10.9432C10.5303 11.088 10.3125 11.2063 10.0833 11.2979V14.0938ZM5.04163 7.975H7.01247V9.85417C7.25691 10.0069 7.49769 10.1139 7.7348 10.175C7.9713 10.2361 8.20413 10.2667 8.4333 10.2667C8.81525 10.2667 9.16297 10.2016 9.47647 10.0714C9.78936 9.94186 10.0909 9.73958 10.3812 9.46458L10.725 9.12083L9.28122 7.67708C8.80761 7.20347 8.28419 6.85208 7.71097 6.62292C7.13836 6.39375 6.52358 6.27917 5.86663 6.27917C5.48469 6.27917 5.122 6.31736 4.77855 6.39375C4.4345 6.47014 4.10969 6.57708 3.80413 6.71458L5.04163 7.975Z" fill="white"/>
</g>
</svg>
