<svg width="22" height="22" viewBox="0 0 22 22" fill="none" xmlns="http://www.w3.org/2000/svg">
<mask id="mask0_24_287" style="mask-type:alpha" maskUnits="userSpaceOnUse" x="0" y="0" width="22" height="22">
<rect width="22" height="22" fill="#D9D9D9"/>
</mask>
<g mask="url(#mask0_24_287)">
<path d="M7.44792 17.7604C7.06597 17.7604 6.74116 17.6269 6.4735 17.3598C6.20644 17.0922 6.07291 16.7674 6.07291 16.3854V14.0938H8.70833V11.5729C8.14305 11.6188 7.58939 11.55 7.04733 11.3667C6.50466 11.1833 6.03472 10.8931 5.6375 10.4958V9.35H4.46875L1.69583 6.57708C2.23055 5.98125 2.86855 5.55347 3.60983 5.29375C4.3505 5.03403 5.10278 4.90417 5.86666 4.90417C6.37083 4.90417 6.85972 4.96131 7.33333 5.07558C7.80694 5.19047 8.26528 5.37778 8.70833 5.6375V4.17083H18.7917V15.4688C18.7917 16.1104 18.5701 16.6528 18.1271 17.0958C17.684 17.5389 17.1417 17.7604 16.5 17.7604H7.44792ZM10.0833 14.0938H15.5833V15.4688C15.5833 15.7285 15.6713 15.946 15.8473 16.1214C16.0227 16.2974 16.2403 16.3854 16.5 16.3854C16.7597 16.3854 16.9773 16.2974 17.1527 16.1214C17.3287 15.946 17.4167 15.7285 17.4167 15.4688V5.54583H10.0833V6.55417L15.3542 11.825V12.7875H14.3917L11.6875 10.0833L11.3437 10.4271C11.1451 10.6257 10.9429 10.7977 10.7369 10.9432C10.5304 11.088 10.3125 11.2063 10.0833 11.2979V14.0938ZM5.04166 7.975H7.0125V9.85417C7.25694 10.0069 7.49772 10.1139 7.73483 10.175C7.97133 10.2361 8.20416 10.2667 8.43333 10.2667C8.81528 10.2667 9.163 10.2016 9.4765 10.0714C9.78939 9.94186 10.091 9.73958 10.3812 9.46458L10.725 9.12083L9.28125 7.67708C8.80764 7.20347 8.28422 6.85208 7.711 6.62292C7.13839 6.39375 6.52361 6.27917 5.86666 6.27917C5.48472 6.27917 5.12203 6.31736 4.77858 6.39375C4.43453 6.47014 4.10972 6.57708 3.80416 6.71458L5.04166 7.975Z" fill="white"/>
</g>
</svg>
