<svg width="349" height="180" viewBox="0 0 349 180" fill="none" xmlns="http://www.w3.org/2000/svg">
<g filter="url(#filter0_d_139_573)">
<mask id="mask0_139_573" style="mask-type:alpha" maskUnits="userSpaceOnUse" x="4" y="0" width="341" height="172">
<path d="M4 0H345V166.078C345 168.839 342.761 171.078 340 171.078H9C6.23857 171.078 4 168.839 4 166.078V0Z" fill="#C4C4C4"/>
</mask>
<g mask="url(#mask0_139_573)">
<rect x="-53.6603" y="-105.222" width="472.455" height="357.858" transform="rotate(7.15101 -53.6603 -105.222)" fill="#D9D9D9"/>
<g filter="url(#filter1_d_139_573)">
<rect x="205.703" y="145.425" width="141.639" height="16.456" transform="rotate(7.15101 205.703 145.425)" fill="#EFEFEF"/>
</g>
<g filter="url(#filter2_d_139_573)">
<rect x="-34.5513" y="115.283" width="141.639" height="16.456" transform="rotate(7.15101 -34.5513 115.283)" fill="#EFEFEF"/>
</g>
<g filter="url(#filter3_d_139_573)">
<rect x="-38.4967" y="149.24" width="141.639" height="16.456" transform="rotate(7.15101 -38.4967 149.24)" fill="#EFEFEF"/>
</g>
<g filter="url(#filter4_d_139_573)">
<rect x="210.093" y="110.437" width="141.639" height="16.456" transform="rotate(7.15101 210.093 110.437)" fill="#EFEFEF"/>
</g>
<g filter="url(#filter5_d_139_573)">
<rect x="-30.1614" y="80.2941" width="141.639" height="16.456" transform="rotate(7.15101 -30.1614 80.2941)" fill="#EFEFEF"/>
</g>
<g filter="url(#filter6_d_139_573)">
<rect x="-14.3737" y="-41.4543" width="242.138" height="82.8675" transform="rotate(7.15101 -14.3737 -41.4543)" fill="#EFEFEF"/>
</g>
<path d="M223.96 123.73C225.718 123.951 227.025 122.915 227.247 121.152L227.334 120.469L224.509 120.113L224.435 120.699L226.596 120.971L226.576 121.126C226.405 122.483 225.394 123.285 224.037 123.114C222.55 122.927 221.754 121.631 221.988 119.77L221.99 119.761C222.221 117.925 223.318 116.877 224.8 117.064C225.9 117.202 226.617 117.839 226.783 118.864L226.792 118.909L227.456 118.993L227.452 118.943C227.34 117.605 226.365 116.636 224.878 116.448C222.998 116.211 221.588 117.481 221.311 119.675L221.31 119.685C221.03 121.908 222.07 123.491 223.96 123.73ZM229.39 124.355C230.16 124.452 230.831 124.168 231.219 123.587L231.277 123.594L231.164 124.491L231.809 124.572L232.258 121.006C232.397 119.907 231.766 119.177 230.545 119.023C229.464 118.887 228.608 119.32 228.367 120.137L228.36 120.155L229.004 120.237L229.01 120.228C229.211 119.726 229.746 119.503 230.453 119.593C231.296 119.699 231.71 120.164 231.613 120.93L231.552 121.419L229.911 121.32C228.694 121.251 227.954 121.694 227.84 122.6L227.839 122.609C227.721 123.54 228.382 124.228 229.39 124.355ZM228.494 122.682L228.495 122.673C228.569 122.082 229.038 121.801 229.932 121.855L231.486 121.942L231.409 122.548C231.305 123.376 230.517 123.927 229.582 123.809C228.88 123.72 228.419 123.278 228.494 122.682ZM234.733 124.975C234.888 124.994 235.035 124.998 235.183 124.992L235.253 124.44C235.12 124.438 235.023 124.431 234.877 124.412C234.286 124.338 234.092 124.043 234.173 123.403L234.581 120.167L235.773 120.317L235.841 119.78L234.649 119.629L234.82 118.273L234.156 118.189L233.985 119.546L233.147 119.44L233.079 119.978L233.917 120.084L233.491 123.465C233.371 124.414 233.735 124.849 234.733 124.975ZM238.11 125.455C239.263 125.6 240.103 125.066 240.395 124.385L240.415 124.348L239.77 124.267L239.747 124.298C239.526 124.684 238.957 124.976 238.197 124.88C237.16 124.749 236.584 123.934 236.718 122.71L240.637 123.205L240.672 122.933C240.867 121.388 240.136 120.233 238.736 120.056C237.336 119.88 236.29 120.84 236.084 122.468L236.083 122.478C235.877 124.115 236.647 125.27 238.11 125.455ZM238.664 120.628C239.56 120.741 240.128 121.433 240.054 122.6L236.789 122.188C237.014 121.069 237.763 120.514 238.664 120.628ZM245.775 126.481C247.175 126.657 248.312 125.801 248.487 124.416L248.488 124.406C248.657 123.064 247.817 121.959 246.509 121.794C245.826 121.708 245.178 121.927 244.78 122.393L244.717 122.385L245.331 119.781L248.601 120.193L248.676 119.597L244.878 119.118L243.994 123.008L244.58 123.082C244.674 122.956 244.782 122.846 244.896 122.757C245.282 122.427 245.787 122.289 246.334 122.358C247.328 122.483 247.965 123.322 247.837 124.339L247.836 124.349C247.706 125.376 246.882 126.02 245.859 125.891C244.968 125.778 244.353 125.115 244.347 124.381L244.346 124.347L243.712 124.267L243.711 124.316C243.683 125.39 244.516 126.322 245.775 126.481ZM250.834 126.971L251.493 127.054L252.374 120.063L251.72 119.981L249.687 121.039L249.599 121.741L251.564 120.714L251.622 120.721L250.834 126.971Z" fill="black"/>
<path d="M67.7439 103.847C69.5025 104.069 70.8093 103.033 71.0317 101.269L71.1178 100.586L68.2935 100.23L68.2196 100.816L70.3802 101.089L70.3607 101.244C70.1896 102.6 69.178 103.403 67.8215 103.232C66.3343 103.044 65.538 101.748 65.7726 99.8877L65.7738 99.878C66.0054 98.042 67.1021 96.9942 68.5845 97.1811C69.6842 97.3198 70.4012 97.9565 70.5672 98.9814L70.5763 99.0268L71.24 99.1105L71.2364 99.0608C71.1246 97.7229 70.1493 96.7534 68.6621 96.5659C66.7824 96.3288 65.3723 97.5979 65.0956 99.7925L65.0944 99.8022C64.814 102.026 65.8546 103.609 67.7439 103.847ZM73.1743 104.473C73.9446 104.57 74.6154 104.285 75.0036 103.704L75.0617 103.712L74.9487 104.608L75.593 104.689L76.0426 101.124C76.1813 100.024 75.5498 99.2947 74.329 99.1408C73.2487 99.0045 72.3918 99.4379 72.1511 100.254L72.1438 100.273L72.7882 100.354L72.7942 100.345C72.9952 99.8437 73.5303 99.6208 74.2375 99.71C75.0805 99.8163 75.4942 100.282 75.3977 101.047L75.336 101.537L73.6948 101.438C72.4782 101.368 71.7382 101.811 71.624 102.717L71.6228 102.727C71.5055 103.657 72.1667 104.346 73.1743 104.473ZM72.278 102.8L72.2792 102.79C72.3537 102.199 72.8222 101.918 73.7161 101.972L75.27 102.06L75.1937 102.665C75.0892 103.494 74.3013 104.044 73.3663 103.926C72.6639 103.838 72.2028 103.396 72.278 102.8ZM78.5169 105.092C78.672 105.112 78.8191 105.116 78.9675 105.11L79.0371 104.558C78.9045 104.556 78.807 104.548 78.6617 104.53C78.0707 104.455 77.8766 104.16 77.9572 103.521L78.3653 100.285L79.557 100.435L79.6248 99.8972L78.4331 99.7469L78.6041 98.3904L77.9404 98.3067L77.7694 99.6632L76.9313 99.5575L76.8635 100.095L77.7016 100.201L77.2752 103.582C77.1555 104.532 77.519 104.966 78.5169 105.092ZM81.8938 105.572C83.0468 105.718 83.8868 105.184 84.1794 104.502L84.1988 104.465L83.5545 104.384L83.5309 104.415C83.31 104.801 82.7416 105.094 81.981 104.998C80.9443 104.867 80.368 104.051 80.5026 102.828L84.4217 103.322L84.4559 103.051C84.6508 101.505 83.9204 100.35 82.5204 100.174C81.1204 99.9971 80.074 100.958 79.8687 102.586L79.8675 102.595C79.661 104.233 80.4308 105.388 81.8938 105.572ZM82.4483 100.745C83.3445 100.858 83.9119 101.55 83.8385 102.717L80.5734 102.305C80.7981 101.187 81.5472 100.632 82.4483 100.745ZM89.5595 106.598C90.9595 106.775 92.096 105.919 92.2707 104.533L92.272 104.524C92.4412 103.182 91.6011 102.077 90.2931 101.912C89.6101 101.826 88.9624 102.044 88.564 102.511L88.501 102.503L89.1149 99.8979L92.3849 100.31L92.4601 99.7144L88.662 99.2355L87.7778 103.125L88.364 103.199C88.4586 103.073 88.5659 102.964 88.6805 102.875C89.0666 102.545 89.5713 102.406 90.1187 102.475C91.1118 102.601 91.7493 103.439 91.621 104.456L91.6198 104.466C91.4903 105.493 90.6659 106.137 89.6437 106.008C88.7523 105.896 88.1371 105.233 88.1312 104.499L88.1307 104.464L87.4961 104.384L87.4948 104.433C87.4676 105.507 88.2999 106.439 89.5595 106.598ZM92.85 106.865L97.3456 107.432L97.4214 106.831L93.851 106.381L93.8583 106.323L95.929 104.655C97.3201 103.536 97.732 103.002 97.8303 102.222L97.8315 102.213C97.9714 101.103 97.1554 100.159 95.9492 100.007C94.6557 99.8436 93.6162 100.593 93.4496 101.798L93.4587 101.804L94.0933 101.884L94.0939 101.879C94.2148 100.999 94.9263 100.468 95.8371 100.583C96.7333 100.696 97.2516 101.387 97.1502 102.191L97.149 102.2C97.069 102.835 96.7415 103.207 95.6419 104.122L92.9086 106.4L92.85 106.865Z" fill="black"/>
<path d="M64.6077 45.4294C66.4796 45.6654 67.9806 44.768 68.4279 43.1885L68.4322 43.1536L67.1417 42.9909L67.1271 43.0127C66.7693 43.9302 65.8632 44.4183 64.7529 44.2783C63.2414 44.0877 62.4572 42.7191 62.708 40.731L62.7094 40.7193C62.9609 38.7254 64.0602 37.5942 65.5659 37.7841C66.6704 37.9234 67.429 38.6982 67.5435 39.758L67.5413 39.7754L68.8318 39.9381L68.8413 39.9098C68.8308 38.2135 67.5597 36.8662 65.711 36.6331C63.3799 36.3391 61.7198 37.8424 61.3782 40.5515L61.3767 40.5631C61.0358 43.2663 62.2766 45.1354 64.6077 45.4294ZM70.9996 46.135C71.8367 46.2405 72.5448 45.9637 72.9975 45.3711L73.0964 45.3836L72.9835 46.2788L74.2333 46.4365L74.778 42.1171C74.9451 40.7917 74.1496 39.8882 72.5625 39.6881C71.1266 39.507 70.0453 40.0734 69.7637 41.0892L69.7528 41.1291L70.9677 41.2823L70.9765 41.2598C71.1841 40.8312 71.6756 40.6334 72.3732 40.7213C73.2277 40.8291 73.6154 41.2677 73.5281 41.9595L73.4578 42.5176L71.7362 42.4009C70.2188 42.3041 69.2872 42.854 69.145 43.9817L69.1435 43.9934C68.9991 45.1386 69.7962 45.9832 70.9996 46.135ZM70.4058 44.0994L70.4073 44.0878C70.4791 43.5181 70.914 43.254 71.7926 43.3116L73.3456 43.4071L73.2774 43.9477C73.1748 44.7616 72.4053 45.2905 71.4635 45.1718C70.7834 45.086 70.3325 44.6807 70.4058 44.0994ZM77.9858 46.951C78.2299 46.9818 78.4661 46.982 78.674 46.9728L78.8008 45.9671C78.6242 45.9625 78.513 45.9544 78.3212 45.9302C77.6992 45.8518 77.4786 45.5405 77.5643 44.8603L77.9873 41.506L79.3418 41.6768L79.4672 40.6828L78.1126 40.512L78.3135 38.9191L77.0288 38.7571L76.8279 40.3499L75.8396 40.2253L75.7143 41.2194L76.7025 41.344L76.2415 45.0006C76.0882 46.2156 76.5964 46.7758 77.9858 46.951ZM79.7952 47.1378L81.0567 47.2969L81.5236 43.5938C81.6519 42.5764 82.3073 42.0154 83.2317 42.1319C84.156 42.2485 84.5267 42.8208 84.3948 43.8672L83.9168 47.6575L85.1725 47.8159L85.6878 43.7291C85.8777 42.2234 85.205 41.2823 83.7924 41.1041C82.8739 40.9883 82.218 41.319 81.8248 41.9545L81.7318 41.9428L82.165 38.5071L80.9036 38.348L79.7952 47.1378ZM88.2483 48.31C89.0855 48.4156 89.7936 48.1387 90.2463 47.5462L90.3451 47.5586L90.2323 48.4539L91.4821 48.6115L92.0268 44.2922C92.1939 42.9668 91.3984 42.0632 89.8113 41.8631C88.3754 41.6821 87.2941 42.2485 87.0125 43.2642L87.0015 43.3042L88.2165 43.4574L88.2253 43.4349C88.4329 43.0063 88.9244 42.8084 89.622 42.8964C90.4765 43.0041 90.8641 43.4428 90.7769 44.1346L90.7065 44.6927L88.985 44.576C87.4676 44.4791 86.536 45.029 86.3938 46.1568L86.3923 46.1684C86.2479 47.3137 87.045 48.1583 88.2483 48.31ZM87.6546 46.2744L87.6561 46.2628C87.7279 45.6931 88.1628 45.429 89.0414 45.4867L90.5944 45.5821L90.5262 46.1227C90.4236 46.9366 89.6541 47.4656 88.7123 47.3468C88.0322 47.2611 87.5813 46.8558 87.6546 46.2744ZM92.9831 51.0568C94.262 51.2181 94.9609 50.8278 95.6856 49.3896L98.8611 43.1283L97.5356 42.9612L95.3239 47.8085L95.2135 47.7946L94.2685 42.5492L92.9082 42.3777L94.4018 48.9856L94.2678 49.2994C94.0011 49.9154 93.615 50.1207 93.0278 50.0466C92.8825 50.0283 92.7263 50.0027 92.6064 49.9699L92.481 50.9639C92.6416 51.0019 92.8262 51.037 92.9831 51.0568ZM101.935 49.9296L107.167 50.5894L107.309 49.4674L103.379 48.9718L104.295 41.7052L102.993 41.541L101.935 49.9296ZM110.636 51.1508C112.485 51.3839 113.774 50.2886 114.031 48.254L114.032 48.2423C114.289 46.2077 113.306 44.8257 111.463 44.5934C109.614 44.3603 108.318 45.4606 108.062 47.4895L108.061 47.5011C107.804 49.5358 108.782 50.917 110.636 51.1508ZM110.769 50.0986C109.682 49.9615 109.175 49.0649 109.351 47.6639L109.353 47.6522C109.529 46.2512 110.243 45.5085 111.33 45.6456C112.412 45.7819 112.924 46.6793 112.748 48.0803L112.746 48.092C112.57 49.4872 111.85 50.2349 110.769 50.0986ZM116.824 51.9311C117.742 52.0469 118.431 51.7322 118.819 51.0902L118.918 51.1026L118.798 52.056L120.054 52.2144L120.85 45.9011L119.594 45.7427L119.127 49.4458C118.999 50.4632 118.378 51.0286 117.367 50.9011C116.443 50.7845 116.124 50.2188 116.256 49.1724L116.734 45.3821L115.473 45.223L114.957 49.3098C114.769 50.8038 115.399 51.7515 116.824 51.9311ZM121.469 52.3928L122.73 52.5518L123.197 48.8487C123.325 47.8314 123.981 47.2703 124.905 47.3869C125.829 47.5034 126.2 48.0758 126.068 49.1222L125.59 52.9125L126.846 53.0708L127.361 48.9841C127.551 47.4784 126.878 46.5372 125.466 46.3591C124.547 46.2433 123.891 46.574 123.498 47.2095L123.405 47.1977L123.526 46.2385L122.265 46.0795L121.469 52.3928ZM130.59 55.8049C132.381 56.0307 133.63 55.2551 133.811 53.8192L134.591 47.6338L133.335 47.4755L133.205 48.5103L133.129 48.5007C132.853 47.7453 132.222 47.2228 131.338 47.1114C129.699 46.9047 128.532 48.051 128.305 49.8531L128.304 49.8647C128.079 51.6436 128.922 53.0196 130.543 53.2241C131.41 53.3333 132.156 53.0376 132.626 52.4L132.719 52.4117L132.562 53.6558C132.453 54.5162 131.776 54.9268 130.735 54.7956C129.881 54.6878 129.408 54.3152 129.358 53.866L129.354 53.8536L128.081 53.6931L128.068 53.7033C128.086 54.7745 128.986 55.6026 130.59 55.8049ZM131.023 52.2275C129.948 52.0919 129.447 51.196 129.595 50.0217L129.596 50.01C129.744 48.8357 130.453 48.0865 131.529 48.2221C132.592 48.3562 133.139 49.2638 132.991 50.4381L132.99 50.4498C132.841 51.6299 132.093 52.3624 131.023 52.2275ZM137.839 54.5811C139.456 54.7849 140.445 53.9647 140.759 53.1598L140.777 53.109L139.561 52.9616L139.532 53.0052C139.34 53.3116 138.807 53.6519 137.999 53.55C136.958 53.4188 136.384 52.6318 136.514 51.4197L140.99 51.9842L141.046 51.5424C141.285 49.6472 140.364 48.2377 138.602 48.0156C136.841 47.7935 135.535 48.9695 135.287 50.9402L135.286 50.946C135.034 52.9458 135.991 54.348 137.839 54.5811ZM138.478 49.0511C139.332 49.1589 139.897 49.7852 139.854 50.9255L136.645 50.5208C136.892 49.4477 137.617 48.9426 138.478 49.0511ZM143.243 50.7623C143.725 50.8231 144.138 50.4972 144.198 50.0264C144.258 49.5497 143.938 49.1314 143.456 49.0706C142.973 49.0097 142.554 49.3349 142.494 49.8116C142.435 50.2825 142.76 50.7014 143.243 50.7623ZM142.688 55.1572C143.171 55.218 143.584 54.8921 143.643 54.4212C143.704 53.9446 143.384 53.5263 142.902 53.4655C142.419 53.4046 142 53.7298 141.94 54.2065C141.881 54.6773 142.206 55.0963 142.688 55.1572ZM150.203 56.0161L151.505 56.1803L152.421 48.9137L155.055 49.2457L155.196 48.1238L148.621 47.2947L148.48 48.4167L151.119 48.7495L150.203 56.0161ZM155.245 56.652L156.507 56.811L156.974 53.1079C157.102 52.0906 157.757 51.5295 158.682 51.6461C159.606 51.7626 159.977 52.335 159.845 53.3814L159.367 57.1717L160.623 57.33L161.138 53.2433C161.328 51.7376 160.655 50.7964 159.242 50.6183C158.324 50.5025 157.668 50.8332 157.275 51.4687L157.182 51.457L157.615 48.0213L156.354 47.8622L155.245 56.652ZM164.615 57.9575C166.231 58.1613 167.22 57.3411 167.534 56.5362L167.552 56.4853L166.337 56.3379L166.308 56.3815C166.115 56.688 165.582 57.0283 164.774 56.9264C163.734 56.7951 163.16 56.0082 163.289 54.7961L167.765 55.3605L167.821 54.9187C168.06 53.0235 167.139 51.6141 165.378 51.392C163.616 51.1698 162.31 52.3458 162.062 54.3165L162.061 54.3223C161.809 56.3221 162.766 57.7244 164.615 57.9575ZM165.253 52.4275C166.108 52.5352 166.672 53.1616 166.629 54.3018L163.42 53.8972C163.667 52.824 164.393 52.319 165.253 52.4275ZM171.5 58.7017L174.529 59.0836C177.028 59.3988 178.671 58.035 179.007 55.3725L179.008 55.3608C179.34 52.7274 178.075 51.0087 175.586 50.6949L172.558 50.313L171.5 58.7017ZM172.944 57.7439L173.718 51.5992L175.3 51.7986C177.038 52.0178 177.924 53.2811 177.681 55.2112L177.679 55.2228C177.433 57.1702 176.28 58.1647 174.525 57.9433L172.944 57.7439ZM182.329 60.1912C183.945 60.395 184.934 59.5748 185.248 58.7699L185.266 58.719L184.051 58.5716L184.021 58.6152C183.829 58.9217 183.296 59.2619 182.488 59.1601C181.448 59.0288 180.873 58.2419 181.003 57.0297L185.479 57.5942L185.535 57.1524C185.774 55.2572 184.853 53.8478 183.091 53.6257C181.33 53.4035 180.024 54.5795 179.776 56.5502L179.775 56.556C179.523 58.5558 180.48 59.9581 182.329 60.1912ZM182.967 54.6612C183.821 54.7689 184.386 55.3953 184.343 56.5355L181.134 56.1309C181.381 55.0577 182.106 54.5527 182.967 54.6612ZM188.859 61.0147C190.423 61.2118 191.43 60.4825 191.812 59.2845L191.83 59.2337L190.621 59.0812L190.605 59.1088C190.316 59.7633 189.782 60.0621 188.992 59.9624C187.951 59.8312 187.413 58.9011 187.589 57.5059L187.59 57.4943C187.762 56.134 188.501 55.3767 189.553 55.5094C190.39 55.615 190.843 56.1446 190.904 56.7842L190.908 56.8024L192.118 56.949L192.122 56.9199C192.102 55.6713 191.267 54.6566 189.68 54.4565C187.837 54.2241 186.558 55.3325 186.306 57.3323L186.304 57.3439C186.047 59.3844 187.016 60.7823 188.859 61.0147ZM192.661 61.3701L193.923 61.5291L194.212 59.2329L194.821 58.7604L196.637 61.8715L198.172 62.065L195.825 58.0602L198.794 55.7297L197.317 55.5435L194.476 57.8901L194.383 57.8784L195.031 52.7394L193.769 52.5803L192.661 61.3701Z" fill="black"/>
<path d="M220.705 158.92C222.463 159.142 223.77 158.106 223.993 156.342L224.079 155.659L221.254 155.303L221.18 155.889L223.341 156.162L223.322 156.317C223.15 157.673 222.139 158.476 220.782 158.305C219.295 158.117 218.499 156.821 218.733 154.961L218.735 154.951C218.966 153.115 220.063 152.067 221.545 152.254C222.645 152.393 223.362 153.03 223.528 154.054L223.537 154.1L224.201 154.184L224.197 154.134C224.085 152.796 223.11 151.827 221.623 151.639C219.743 151.402 218.333 152.671 218.056 154.866L218.055 154.875C217.775 157.099 218.815 158.682 220.705 158.92ZM226.135 159.546C226.905 159.643 227.576 159.358 227.964 158.777L228.023 158.785L227.91 159.681L228.554 159.762L229.003 156.197C229.142 155.097 228.511 154.368 227.29 154.214C226.21 154.078 225.353 154.511 225.112 155.327L225.105 155.346L225.749 155.427L225.755 155.418C225.956 154.917 226.491 154.694 227.198 154.783C228.041 154.889 228.455 155.355 228.359 156.12L228.297 156.61L226.656 156.511C225.439 156.441 224.699 156.884 224.585 157.79L224.584 157.8C224.466 158.73 225.128 159.419 226.135 159.546ZM225.239 157.873L225.24 157.863C225.315 157.272 225.783 156.992 226.677 157.045L228.231 157.133L228.155 157.738C228.05 158.567 227.262 159.117 226.327 158.999C225.625 158.911 225.164 158.469 225.239 157.873ZM231.478 160.165C231.633 160.185 231.78 160.189 231.928 160.183L231.998 159.631C231.865 159.629 231.768 159.621 231.623 159.603C231.031 159.528 230.837 159.233 230.918 158.594L231.326 155.358L232.518 155.508L232.586 154.97L231.394 154.82L231.565 153.464L230.901 153.38L230.73 154.736L229.892 154.631L229.824 155.168L230.662 155.274L230.236 158.655C230.116 159.605 230.48 160.04 231.478 160.165ZM234.855 160.645C236.008 160.791 236.848 160.257 237.14 159.575L237.16 159.538L236.515 159.457L236.492 159.489C236.271 159.874 235.702 160.167 234.942 160.071C233.905 159.94 233.329 159.124 233.463 157.901L237.383 158.395L237.417 158.124C237.612 156.578 236.881 155.423 235.481 155.247C234.081 155.07 233.035 156.031 232.83 157.659L232.828 157.668C232.622 159.306 233.392 160.461 234.855 160.645ZM235.409 155.818C236.305 155.931 236.873 156.623 236.799 157.79L233.534 157.378C233.759 156.26 234.508 155.705 235.409 155.818ZM242.52 161.671C243.92 161.848 245.057 160.992 245.232 159.606L245.233 159.597C245.402 158.255 244.562 157.15 243.254 156.985C242.571 156.899 241.923 157.117 241.525 157.584L241.462 157.576L242.076 154.971L245.346 155.383L245.421 154.788L241.623 154.309L240.739 158.198L241.325 158.272C241.419 158.146 241.527 158.037 241.641 157.948C242.027 157.618 242.532 157.479 243.08 157.549C244.073 157.674 244.71 158.512 244.582 159.529L244.581 159.539C244.451 160.566 243.627 161.21 242.605 161.081C241.713 160.969 241.098 160.306 241.092 159.572L241.092 159.537L240.457 159.457L240.456 159.506C240.428 160.58 241.261 161.512 242.52 161.671ZM248.214 162.355C249.59 162.528 250.711 161.798 250.857 160.64L250.858 160.631C250.983 159.638 250.367 158.901 249.336 158.687L249.339 158.667C250.253 158.601 250.925 158.07 251.033 157.208L251.035 157.198C251.166 156.157 250.383 155.3 249.095 155.138C247.825 154.978 246.863 155.624 246.626 156.687L246.615 156.734L247.254 156.815L247.265 156.767C247.431 156.035 248.12 155.605 249.021 155.719C249.942 155.835 250.46 156.407 250.361 157.192L250.36 157.202C250.263 157.972 249.544 158.442 248.614 158.325L247.8 158.223L247.729 158.789L248.567 158.895C249.681 159.035 250.298 159.645 250.183 160.56L250.181 160.57C250.077 161.399 249.295 161.9 248.287 161.773C247.27 161.645 246.67 161.018 246.673 160.251L246.674 160.207L246.034 160.126L246.033 160.18C246.008 161.269 246.804 162.177 248.214 162.355Z" fill="black"/>
<path d="M62.5441 138.695C64.3027 138.916 65.6095 137.88 65.8319 136.117L65.918 135.434L63.0937 135.078L63.0198 135.664L65.1804 135.936L65.1609 136.091C64.9898 137.448 63.9782 138.25 62.6217 138.079C61.1345 137.892 60.3382 136.596 60.5728 134.735L60.574 134.726C60.8056 132.89 61.9023 131.842 63.3847 132.029C64.4844 132.167 65.2014 132.804 65.3674 133.829L65.3765 133.874L66.0402 133.958L66.0366 133.908C65.9248 132.57 64.9495 131.601 63.4623 131.413C61.5826 131.176 60.1726 132.446 59.8958 134.64L59.8946 134.65C59.6142 136.873 60.6548 138.456 62.5441 138.695ZM67.9745 139.32C68.7448 139.418 69.4156 139.133 69.8038 138.552L69.8619 138.559L69.7489 139.456L70.3932 139.537L70.8428 135.971C70.9815 134.872 70.35 134.142 69.1292 133.988C68.0489 133.852 67.1921 134.285 66.9513 135.102L66.944 135.12L67.5884 135.202L67.5944 135.193C67.7954 134.691 68.3305 134.468 69.0377 134.558C69.8807 134.664 70.2944 135.129 70.1979 135.895L70.1362 136.384L68.495 136.286C67.2784 136.216 66.5384 136.659 66.4242 137.565L66.423 137.574C66.3057 138.505 66.9669 139.193 67.9745 139.32ZM67.0782 137.647L67.0794 137.638C67.1539 137.047 67.6224 136.766 68.5163 136.82L70.0702 136.907L69.9939 137.513C69.8894 138.341 69.1015 138.892 68.1665 138.774C67.4641 138.685 67.0031 138.243 67.0782 137.647ZM73.3171 139.94C73.4722 139.96 73.6193 139.963 73.7677 139.957L73.8374 139.405C73.7047 139.403 73.6072 139.396 73.4619 139.377C72.8709 139.303 72.6768 139.008 72.7574 138.368L73.1655 135.132L74.3572 135.283L74.425 134.745L73.2333 134.595L73.4043 133.238L72.7406 133.154L72.5696 134.511L71.7315 134.405L71.6637 134.943L72.5018 135.049L72.0754 138.43C71.9557 139.379 72.3192 139.814 73.3171 139.94ZM76.694 140.42C77.847 140.565 78.687 140.031 78.9796 139.35L78.999 139.313L78.3547 139.232L78.3311 139.263C78.1102 139.649 77.5418 139.941 76.7812 139.845C75.7445 139.715 75.1682 138.899 75.3028 137.675L79.2219 138.17L79.2561 137.898C79.451 136.353 78.7207 135.198 77.3206 135.021C75.9206 134.845 74.8742 135.805 74.6689 137.433L74.6677 137.443C74.4612 139.08 75.231 140.235 76.694 140.42ZM77.2485 135.593C78.1447 135.706 78.7121 136.398 78.6388 137.565L75.3736 137.153C75.5983 136.035 76.3475 135.479 77.2485 135.593ZM84.3597 141.446C85.7597 141.622 86.8962 140.766 87.071 139.381L87.0722 139.371C87.2414 138.029 86.4013 136.924 85.0933 136.759C84.4103 136.673 83.7626 136.892 83.3642 137.358L83.3012 137.35L83.9151 134.746L87.1851 135.158L87.2603 134.562L83.4622 134.083L82.578 137.973L83.1642 138.047C83.2588 137.921 83.3661 137.811 83.4807 137.722C83.8669 137.392 84.3715 137.254 84.9189 137.323C85.912 137.448 86.5495 138.287 86.4212 139.304L86.42 139.314C86.2905 140.341 85.4661 140.985 84.4439 140.856C83.5525 140.743 82.9373 140.08 82.9314 139.346L82.9309 139.312L82.2963 139.232L82.295 139.281C82.2678 140.355 83.1001 141.287 84.3597 141.446ZM91.0752 142.145L91.7195 142.226L91.9187 140.647L92.9651 140.779L93.0402 140.183L91.9938 140.051L92.6022 135.226L91.6527 135.106C89.8591 137.036 88.8561 138.238 87.8385 139.517L87.7621 140.123L91.2743 140.565L91.0752 142.145ZM88.5294 139.619L88.5349 139.575C89.3833 138.506 90.2178 137.509 91.8343 135.774L91.8779 135.779L91.3489 139.974L88.5294 139.619Z" fill="black"/>
<path d="M59.1784 172.5C60.937 172.721 62.2439 171.685 62.4662 169.922L62.5523 169.239L59.728 168.883L59.6541 169.469L61.8147 169.741L61.7952 169.897C61.6241 171.253 60.6125 172.056 59.256 171.885C57.7688 171.697 56.9726 170.401 57.2071 168.54L57.2084 168.531C57.4399 166.695 58.5366 165.647 60.019 165.834C61.1187 165.972 61.8357 166.609 62.0017 167.634L62.0108 167.68L62.6745 167.763L62.6709 167.714C62.5591 166.376 61.5838 165.406 60.0966 165.219C58.2169 164.982 56.8069 166.251 56.5301 168.445L56.5289 168.455C56.2485 170.678 57.2891 172.262 59.1784 172.5ZM64.6088 173.125C65.3791 173.223 66.0499 172.938 66.4381 172.357L66.4962 172.364L66.3832 173.261L67.0275 173.342L67.4771 169.776C67.6158 168.677 66.9843 167.947 65.7635 167.793C64.6832 167.657 63.8264 168.091 63.5856 168.907L63.5784 168.925L64.2227 169.007L64.2287 168.998C64.4297 168.496 64.9648 168.273 65.6721 168.363C66.515 168.469 66.9287 168.935 66.8322 169.7L66.7705 170.189L65.1293 170.091C63.9127 170.021 63.1727 170.464 63.0585 171.37L63.0573 171.38C62.94 172.31 63.6012 172.998 64.6088 173.125ZM63.7125 171.452L63.7137 171.443C63.7882 170.852 64.2567 170.571 65.1506 170.625L66.7045 170.712L66.6282 171.318C66.5237 172.146 65.7358 172.697 64.8008 172.579C64.0984 172.49 63.6374 172.048 63.7125 171.452ZM69.9514 173.745C70.1065 173.765 70.2536 173.768 70.402 173.762L70.4717 173.21C70.339 173.208 70.2415 173.201 70.0962 173.183C69.5052 173.108 69.3111 172.813 69.3917 172.173L69.7998 168.937L70.9915 169.088L71.0593 168.55L69.8676 168.4L70.0386 167.043L69.3749 166.959L69.2039 168.316L68.3658 168.21L68.298 168.748L69.1361 168.854L68.7097 172.235C68.59 173.185 68.9535 173.619 69.9514 173.745ZM73.3283 174.225C74.4813 174.37 75.3213 173.836 75.6139 173.155L75.6333 173.118L74.989 173.037L74.9654 173.068C74.7445 173.454 74.1761 173.746 73.4155 173.65C72.3788 173.52 71.8025 172.704 71.9371 171.481L75.8562 171.975L75.8904 171.703C76.0853 170.158 75.355 169.003 73.9549 168.826C72.5549 168.65 71.5085 169.61 71.3032 171.238L71.302 171.248C71.0955 172.885 71.8653 174.04 73.3283 174.225ZM73.8828 169.398C74.7791 169.511 75.3464 170.203 75.2731 171.37L72.0079 170.958C72.2326 169.84 72.9818 169.284 73.8828 169.398ZM80.994 175.251C82.394 175.427 83.5305 174.571 83.7053 173.186L83.7065 173.176C83.8757 171.834 83.0357 170.729 81.7277 170.564C81.0446 170.478 80.3969 170.697 79.9985 171.163L79.9355 171.155L80.5494 168.551L83.8194 168.963L83.8946 168.367L80.0965 167.888L79.2123 171.778L79.7985 171.852C79.8931 171.726 80.0004 171.616 80.115 171.527C80.5012 171.197 81.0058 171.059 81.5532 171.128C82.5463 171.253 83.1838 172.092 83.0555 173.109L83.0543 173.119C82.9248 174.146 82.1004 174.79 81.0782 174.661C80.1868 174.548 79.5716 173.885 79.5658 173.151L79.5652 173.117L78.9306 173.037L78.9293 173.086C78.9021 174.16 79.7344 175.092 80.994 175.251ZM86.824 175.986C88.2047 176.16 89.3551 175.271 89.5286 173.896L89.5299 173.886C89.6978 172.554 88.8403 171.432 87.5226 171.266C86.5295 171.14 85.7053 171.627 85.3696 172.298L85.3018 172.29C85.3104 172.222 85.3195 172.149 85.3281 172.081C85.5764 170.425 86.3445 169.134 87.7058 169.305C88.5003 169.406 89.0206 169.924 89.1307 170.612L89.1385 170.667L89.807 170.751L89.8004 170.687C89.7125 169.667 88.9533 168.857 87.7906 168.711C86.1435 168.503 84.9708 169.802 84.6678 172.205L84.6666 172.215C84.3569 174.671 85.4724 175.815 86.824 175.986ZM85.3582 173.325L85.3588 173.321C85.4798 172.361 86.3641 171.71 87.3475 171.834C88.3455 171.96 88.992 172.804 88.8643 173.817L88.8631 173.827C88.7367 174.829 87.8674 175.517 86.8889 175.394C85.8812 175.267 85.2293 174.348 85.3582 173.325Z" fill="black"/>
<g filter="url(#filter7_d_139_573)">
<circle cx="170.6" cy="119.44" r="19.1563" transform="rotate(1.10589 170.6 119.44)" fill="white"/>
<path d="M160.747 130.299L170.532 108.151L178.963 130.651L170.248 122.873L160.747 130.299Z" fill="#7B96DC"/>
</g>
</g>
</g>
<defs>
<filter id="filter0_d_139_573" x="0" y="0" width="349" height="179.078" filterUnits="userSpaceOnUse" color-interpolation-filters="sRGB">
<feFlood flood-opacity="0" result="BackgroundImageFix"/>
<feColorMatrix in="SourceAlpha" type="matrix" values="0 0 0 0 0 0 0 0 0 0 0 0 0 0 0 0 0 0 127 0" result="hardAlpha"/>
<feOffset dy="4"/>
<feGaussianBlur stdDeviation="2"/>
<feComposite in2="hardAlpha" operator="out"/>
<feColorMatrix type="matrix" values="0 0 0 0 0 0 0 0 0 0 0 0 0 0 0 0 0 0 0.25 0"/>
<feBlend mode="normal" in2="BackgroundImageFix" result="effect1_dropShadow_139_573"/>
<feBlend mode="normal" in="SourceGraphic" in2="effect1_dropShadow_139_573" result="shape"/>
</filter>
<filter id="filter1_d_139_573" x="199.655" y="145.425" width="150.586" height="41.9598" filterUnits="userSpaceOnUse" color-interpolation-filters="sRGB">
<feFlood flood-opacity="0" result="BackgroundImageFix"/>
<feColorMatrix in="SourceAlpha" type="matrix" values="0 0 0 0 0 0 0 0 0 0 0 0 0 0 0 0 0 0 127 0" result="hardAlpha"/>
<feOffset dy="4"/>
<feGaussianBlur stdDeviation="2"/>
<feComposite in2="hardAlpha" operator="out"/>
<feColorMatrix type="matrix" values="0 0 0 0 0 0 0 0 0 0 0 0 0 0 0 0 0 0 0.25 0"/>
<feBlend mode="normal" in2="BackgroundImageFix" result="effect1_dropShadow_139_573"/>
<feBlend mode="normal" in="SourceGraphic" in2="effect1_dropShadow_139_573" result="shape"/>
</filter>
<filter id="filter2_d_139_573" x="-40.5997" y="115.283" width="150.586" height="41.9598" filterUnits="userSpaceOnUse" color-interpolation-filters="sRGB">
<feFlood flood-opacity="0" result="BackgroundImageFix"/>
<feColorMatrix in="SourceAlpha" type="matrix" values="0 0 0 0 0 0 0 0 0 0 0 0 0 0 0 0 0 0 127 0" result="hardAlpha"/>
<feOffset dy="4"/>
<feGaussianBlur stdDeviation="2"/>
<feComposite in2="hardAlpha" operator="out"/>
<feColorMatrix type="matrix" values="0 0 0 0 0 0 0 0 0 0 0 0 0 0 0 0 0 0 0.25 0"/>
<feBlend mode="normal" in2="BackgroundImageFix" result="effect1_dropShadow_139_573"/>
<feBlend mode="normal" in="SourceGraphic" in2="effect1_dropShadow_139_573" result="shape"/>
</filter>
<filter id="filter3_d_139_573" x="-44.5452" y="149.24" width="150.586" height="41.9598" filterUnits="userSpaceOnUse" color-interpolation-filters="sRGB">
<feFlood flood-opacity="0" result="BackgroundImageFix"/>
<feColorMatrix in="SourceAlpha" type="matrix" values="0 0 0 0 0 0 0 0 0 0 0 0 0 0 0 0 0 0 127 0" result="hardAlpha"/>
<feOffset dy="4"/>
<feGaussianBlur stdDeviation="2"/>
<feComposite in2="hardAlpha" operator="out"/>
<feColorMatrix type="matrix" values="0 0 0 0 0 0 0 0 0 0 0 0 0 0 0 0 0 0 0.25 0"/>
<feBlend mode="normal" in2="BackgroundImageFix" result="effect1_dropShadow_139_573"/>
<feBlend mode="normal" in="SourceGraphic" in2="effect1_dropShadow_139_573" result="shape"/>
</filter>
<filter id="filter4_d_139_573" x="204.045" y="110.437" width="150.586" height="41.9598" filterUnits="userSpaceOnUse" color-interpolation-filters="sRGB">
<feFlood flood-opacity="0" result="BackgroundImageFix"/>
<feColorMatrix in="SourceAlpha" type="matrix" values="0 0 0 0 0 0 0 0 0 0 0 0 0 0 0 0 0 0 127 0" result="hardAlpha"/>
<feOffset dy="4"/>
<feGaussianBlur stdDeviation="2"/>
<feComposite in2="hardAlpha" operator="out"/>
<feColorMatrix type="matrix" values="0 0 0 0 0 0 0 0 0 0 0 0 0 0 0 0 0 0 0.25 0"/>
<feBlend mode="normal" in2="BackgroundImageFix" result="effect1_dropShadow_139_573"/>
<feBlend mode="normal" in="SourceGraphic" in2="effect1_dropShadow_139_573" result="shape"/>
</filter>
<filter id="filter5_d_139_573" x="-36.2098" y="80.2941" width="150.586" height="41.9599" filterUnits="userSpaceOnUse" color-interpolation-filters="sRGB">
<feFlood flood-opacity="0" result="BackgroundImageFix"/>
<feColorMatrix in="SourceAlpha" type="matrix" values="0 0 0 0 0 0 0 0 0 0 0 0 0 0 0 0 0 0 127 0" result="hardAlpha"/>
<feOffset dy="4"/>
<feGaussianBlur stdDeviation="2"/>
<feComposite in2="hardAlpha" operator="out"/>
<feColorMatrix type="matrix" values="0 0 0 0 0 0 0 0 0 0 0 0 0 0 0 0 0 0 0.25 0"/>
<feBlend mode="normal" in2="BackgroundImageFix" result="effect1_dropShadow_139_573"/>
<feBlend mode="normal" in="SourceGraphic" in2="effect1_dropShadow_139_573" result="shape"/>
</filter>
<filter id="filter6_d_139_573" x="-28.6895" y="-41.4543" width="258.57" height="120.365" filterUnits="userSpaceOnUse" color-interpolation-filters="sRGB">
<feFlood flood-opacity="0" result="BackgroundImageFix"/>
<feColorMatrix in="SourceAlpha" type="matrix" values="0 0 0 0 0 0 0 0 0 0 0 0 0 0 0 0 0 0 127 0" result="hardAlpha"/>
<feOffset dy="4"/>
<feGaussianBlur stdDeviation="2"/>
<feComposite in2="hardAlpha" operator="out"/>
<feColorMatrix type="matrix" values="0 0 0 0 0 0 0 0 0 0 0 0 0 0 0 0 0 0 0.25 0"/>
<feBlend mode="normal" in2="BackgroundImageFix" result="effect1_dropShadow_139_573"/>
<feBlend mode="normal" in="SourceGraphic" in2="effect1_dropShadow_139_573" result="shape"/>
</filter>
<filter id="filter7_d_139_573" x="147.444" y="100.283" width="46.3127" height="46.3127" filterUnits="userSpaceOnUse" color-interpolation-filters="sRGB">
<feFlood flood-opacity="0" result="BackgroundImageFix"/>
<feColorMatrix in="SourceAlpha" type="matrix" values="0 0 0 0 0 0 0 0 0 0 0 0 0 0 0 0 0 0 127 0" result="hardAlpha"/>
<feOffset dy="4"/>
<feGaussianBlur stdDeviation="2"/>
<feComposite in2="hardAlpha" operator="out"/>
<feColorMatrix type="matrix" values="0 0 0 0 0 0 0 0 0 0 0 0 0 0 0 0 0 0 0.25 0"/>
<feBlend mode="normal" in2="BackgroundImageFix" result="effect1_dropShadow_139_573"/>
<feBlend mode="normal" in="SourceGraphic" in2="effect1_dropShadow_139_573" result="shape"/>
</filter>
</defs>
</svg>
