<svg width="349" height="180" viewBox="0 0 349 180" fill="none" xmlns="http://www.w3.org/2000/svg">
<g filter="url(#filter0_d_139_491)">
<mask id="mask0_139_491" style="mask-type:alpha" maskUnits="userSpaceOnUse" x="4" y="0" width="341" height="172">
<path d="M4 0H345V166.078C345 168.839 342.761 171.078 340 171.078H9C6.23857 171.078 4 168.839 4 166.078V0Z" fill="#C4C4C4"/>
</mask>
<g mask="url(#mask0_139_491)">
<rect x="-133.567" y="152.139" width="472.455" height="357.858" transform="rotate(-46.9372 -133.567 152.139)" fill="#D9D9D9"/>
<g filter="url(#filter1_d_139_491)">
<rect x="221.564" y="89.0887" width="141.639" height="16.456" transform="rotate(-46.9372 221.564 89.0887)" fill="#EFEFEF"/>
</g>
<g filter="url(#filter2_d_139_491)">
<rect x="246.753" y="112.202" width="141.639" height="16.456" transform="rotate(-46.9372 246.753 112.202)" fill="#EFEFEF"/>
</g>
<g filter="url(#filter3_d_139_491)">
<rect x="56.2327" y="265.996" width="141.639" height="16.456" transform="rotate(-46.9372 56.2327 265.996)" fill="#EFEFEF"/>
</g>
<g filter="url(#filter4_d_139_491)">
<rect x="195.801" y="65.0114" width="141.639" height="16.456" transform="rotate(-46.9372 195.801 65.0114)" fill="#EFEFEF"/>
</g>
<g filter="url(#filter5_d_139_491)">
<rect x="30.4696" y="241.919" width="141.639" height="16.456" transform="rotate(-46.9372 30.4696 241.919)" fill="#EFEFEF"/>
</g>
<g filter="url(#filter6_d_139_491)">
<rect x="-58.877" y="157.722" width="242.138" height="82.8675" transform="rotate(-46.9372 -58.877 157.722)" fill="#EFEFEF"/>
</g>
<path d="M214.701 61.5773C215.912 60.2831 215.839 58.617 214.541 57.4026L214.039 56.9322L212.094 59.0108L212.525 59.4144L214.013 57.8243L214.127 57.9311C215.125 58.8652 215.182 60.1553 214.248 61.1536C213.224 62.2482 211.707 62.1327 210.338 60.8516L210.33 60.8449C208.979 59.5805 208.774 58.0777 209.795 56.9867C210.552 56.1774 211.488 55.9701 212.416 56.4368L212.458 56.4561L212.915 55.9677L212.873 55.9414C211.723 55.2472 210.366 55.4684 209.342 56.563C208.047 57.9463 208.248 59.8328 209.863 61.3441L209.87 61.3508C211.507 62.8821 213.399 62.9678 214.701 61.5773ZM218.393 57.5461C218.923 56.9792 219.086 56.2691 218.843 55.6139L218.883 55.5711L219.543 56.1883L219.986 55.7141L217.362 53.2587C216.553 52.5013 215.592 52.5851 214.751 53.4835C214.007 54.2786 213.856 55.2267 214.375 55.9004L214.386 55.9173L214.83 55.4431L214.826 55.4329C214.538 54.9761 214.672 54.412 215.159 53.8915C215.739 53.2711 216.359 53.2091 216.922 53.7362L217.282 54.0731L216.24 55.3445C215.47 56.289 215.395 57.1482 216.061 57.7721L216.068 57.7787C216.753 58.4193 217.699 58.2877 218.393 57.5461ZM216.512 57.2907L216.505 57.2841C216.07 56.8771 216.117 56.3331 216.685 55.6406L217.667 54.4335L218.113 54.8505C218.723 55.421 218.706 56.3819 218.062 57.07C217.579 57.587 216.95 57.7011 216.512 57.2907ZM222.028 53.5824C222.135 53.4684 222.224 53.3514 222.306 53.2277L221.9 52.8474C221.821 52.9537 221.757 53.0283 221.657 53.1353C221.25 53.5703 220.897 53.5543 220.427 53.114L218.045 50.8854L218.866 50.0083L218.47 49.638L217.649 50.515L216.651 49.5809L216.194 50.0693L217.192 51.0035L216.615 51.6203L217.011 51.9906L217.588 51.3738L220.077 53.7025C220.775 54.3564 221.341 54.3169 222.028 53.5824ZM224.397 51.129C225.191 50.2804 225.252 49.287 224.871 48.6501L224.853 48.6127L224.409 49.0869L224.421 49.1245C224.603 49.5296 224.507 50.1615 223.983 50.7213C223.269 51.4842 222.27 51.4725 221.359 50.646L224.058 47.7617L223.858 47.5749C222.721 46.5106 221.357 46.4246 220.392 47.455C219.428 48.4854 219.593 49.8963 220.79 51.0172L220.798 51.0239C222.003 52.1516 223.39 52.2057 224.397 51.129ZM220.813 47.8487C221.43 47.1891 222.323 47.1352 223.225 47.8791L220.977 50.2821C220.203 49.4442 220.193 48.5118 220.813 47.8487ZM229.724 45.522C230.688 44.4916 230.662 43.0692 229.642 42.115L229.635 42.1083C228.648 41.1842 227.26 41.2165 226.359 42.1791C225.889 42.6818 225.686 43.3345 225.83 43.9309L225.787 43.9772L224.037 41.9522L226.289 39.5456L225.85 39.1352L223.235 41.9304L225.867 44.928L226.27 44.4966C226.224 44.3462 226.198 44.195 226.193 44.0501C226.152 43.5436 226.336 43.0539 226.713 42.651C227.397 41.9201 228.45 41.8955 229.199 42.5961L229.206 42.6028C229.962 43.3101 230 44.3555 229.296 45.1078C228.682 45.7638 227.784 45.8731 227.186 45.4473L227.158 45.4275L226.721 45.8946L226.76 45.9244C227.614 46.5766 228.857 46.4489 229.724 45.522ZM233.088 41.7124L233.542 41.2275L228.397 36.4133L227.947 36.8946L227.611 39.1616L228.128 39.6454L228.449 37.4514L228.489 37.4086L233.088 41.7124Z" fill="black"/>
<path d="M106.971 176.438C108.182 175.144 108.109 173.478 106.811 172.263L106.309 171.793L104.364 173.871L104.795 174.275L106.283 172.685L106.397 172.792C107.395 173.726 107.452 175.016 106.518 176.014C105.494 177.109 103.977 176.993 102.608 175.712L102.601 175.706C101.249 174.441 101.044 172.938 102.065 171.847C102.822 171.038 103.758 170.831 104.686 171.297L104.728 171.317L105.185 170.828L105.143 170.802C103.994 170.108 102.636 170.329 101.612 171.424C100.318 172.807 100.518 174.693 102.134 176.205L102.141 176.211C103.777 177.743 105.67 177.828 106.971 176.438ZM110.663 172.407C111.193 171.84 111.356 171.13 111.113 170.475L111.153 170.432L111.813 171.049L112.257 170.575L109.633 168.119C108.823 167.362 107.862 167.446 107.021 168.344C106.277 169.139 106.126 170.087 106.646 170.761L106.657 170.778L107.1 170.304L107.096 170.293C106.808 169.837 106.942 169.273 107.429 168.752C108.009 168.132 108.629 168.07 109.192 168.597L109.552 168.934L108.51 170.205C107.74 171.15 107.665 172.009 108.331 172.633L108.339 172.639C109.023 173.28 109.969 173.148 110.663 172.407ZM108.782 172.151L108.775 172.145C108.34 171.738 108.387 171.194 108.955 170.501L109.938 169.294L110.383 169.711C110.993 170.282 110.976 171.243 110.332 171.931C109.849 172.448 109.22 172.562 108.782 172.151ZM114.298 168.443C114.405 168.329 114.494 168.212 114.577 168.088L114.17 167.708C114.091 167.814 114.028 167.889 113.927 167.996C113.52 168.431 113.168 168.415 112.697 167.975L110.315 165.746L111.136 164.869L110.74 164.499L109.92 165.376L108.921 164.442L108.464 164.93L109.462 165.864L108.885 166.481L109.281 166.851L109.858 166.234L112.347 168.563C113.046 169.217 113.611 169.178 114.298 168.443ZM116.667 165.99C117.461 165.141 117.522 164.148 117.141 163.511L117.123 163.473L116.679 163.948L116.691 163.985C116.873 164.39 116.777 165.022 116.253 165.582C115.539 166.345 114.541 166.333 113.629 165.507L116.328 162.622L116.128 162.435C114.991 161.371 113.627 161.285 112.663 162.316C111.698 163.346 111.863 164.757 113.061 165.878L113.068 165.885C114.273 167.012 115.66 167.066 116.667 165.99ZM113.083 162.709C113.7 162.05 114.593 161.996 115.496 162.74L113.247 165.143C112.473 164.305 112.463 163.372 113.083 162.709ZM121.994 160.383C122.959 159.352 122.932 157.93 121.912 156.976L121.905 156.969C120.918 156.045 119.53 156.077 118.629 157.04C118.159 157.542 117.956 158.195 118.1 158.791L118.057 158.838L116.307 156.813L118.559 154.406L118.121 153.996L115.505 156.791L118.137 159.789L118.54 159.357C118.494 159.207 118.468 159.056 118.463 158.911C118.422 158.404 118.606 157.914 118.983 157.512C119.667 156.781 120.72 156.756 121.469 157.457L121.476 157.463C122.232 158.171 122.27 159.216 121.566 159.968C120.952 160.624 120.054 160.734 119.456 160.308L119.428 160.288L118.991 160.755L119.03 160.785C119.884 161.437 121.127 161.31 121.994 160.383ZM124.141 157.874L127.237 154.566L126.795 154.152L124.336 156.78L124.293 156.74L124.157 154.084C124.066 152.301 123.876 151.655 123.302 151.117L123.295 151.111C122.478 150.347 121.235 150.454 120.404 151.341C119.513 152.293 119.511 153.575 120.388 154.417L120.399 154.413L120.836 153.946L120.832 153.942C120.19 153.328 120.178 152.441 120.805 151.77C121.422 151.111 122.285 151.096 122.877 151.65L122.884 151.656C123.351 152.093 123.461 152.577 123.556 154.004L123.799 157.554L124.141 157.874Z" fill="black"/>
<path d="M57.8176 144.714C59.1067 143.336 59.2603 141.594 58.2434 140.305L58.2177 140.281L57.3289 141.231L57.338 141.256C57.8713 142.084 57.7352 143.104 56.9705 143.921C55.9296 145.034 54.3612 144.866 52.898 143.497L52.8894 143.489C51.4219 142.116 51.1506 140.562 52.1875 139.454C52.9482 138.641 54.0207 138.481 54.9461 139.01L54.959 139.022L55.8477 138.072L55.8304 138.048C54.4503 137.061 52.6135 137.3 51.3404 138.661C49.735 140.377 49.9789 142.603 51.9726 144.468L51.9812 144.476C53.9706 146.338 56.2122 146.429 57.8176 144.714ZM62.1382 139.951C62.7147 139.335 62.9058 138.599 62.6914 137.885L62.7595 137.812L63.4183 138.428L64.2791 137.509L61.1002 134.534C60.1248 133.621 58.9264 133.736 57.8334 134.904C56.8446 135.96 56.6691 137.168 57.3266 137.992L57.3525 138.025L58.1892 137.13L58.1761 137.11C57.9508 136.691 58.0788 136.176 58.5592 135.663C59.1477 135.034 59.7304 134.977 60.2395 135.454L60.6502 135.838L59.5459 137.164C58.5775 138.336 58.4764 139.413 59.3064 140.19L59.315 140.198C60.1578 140.987 61.3094 140.836 62.1382 139.951ZM60.1412 139.238L60.1327 139.23C59.7134 138.837 59.7546 138.33 60.3166 137.653L61.3048 136.451L61.7027 136.823C62.3017 137.383 62.2788 138.317 61.6302 139.01C61.1618 139.511 60.5691 139.638 60.1412 139.238ZM66.8967 134.771C67.0649 134.591 67.2036 134.4 67.3181 134.227L66.5779 133.534C66.4706 133.674 66.3989 133.76 66.2667 133.901C65.8384 134.359 65.4569 134.355 64.9563 133.886L62.4877 131.576L63.4205 130.579L62.6889 129.895L61.7561 130.892L60.5838 129.795L59.699 130.74L60.8713 131.837L60.1907 132.565L60.9223 133.249L61.6029 132.522L64.294 135.04C65.1882 135.877 65.9399 135.794 66.8967 134.771ZM68.1093 133.415L68.9781 132.487L66.2528 129.937C65.504 129.236 65.434 128.376 66.0706 127.696C66.7071 127.016 67.3882 127.051 68.1583 127.772L70.9478 130.382L71.8125 129.458L68.8048 126.643C67.6967 125.606 66.5399 125.599 65.5671 126.639C64.9345 127.315 64.8176 128.04 65.1017 128.731L65.0377 128.8L62.5092 126.434L61.6404 127.362L68.1093 133.415ZM74.0169 127.256C74.5934 126.64 74.7845 125.904 74.5701 125.19L74.6382 125.117L75.297 125.734L76.1578 124.814L72.9789 121.84C72.0035 120.927 70.8051 121.041 69.7121 122.209C68.7233 123.266 68.5478 124.474 69.2053 125.298L69.2312 125.33L70.0679 124.436L70.0548 124.416C69.8295 123.996 69.9575 123.482 70.4379 122.969C71.0264 122.34 71.6091 122.283 72.1182 122.759L72.5289 123.144L71.4246 124.47C70.4562 125.642 70.3551 126.719 71.1851 127.496L71.1937 127.504C72.0365 128.292 73.1881 128.142 74.0169 127.256ZM72.0199 126.543L72.0114 126.535C71.5921 126.143 71.6333 125.636 72.1953 124.958L73.1835 123.756L73.5814 124.129C74.1804 124.689 74.1575 125.623 73.5089 126.316C73.0405 126.816 72.4478 126.944 72.0199 126.543ZM79.0186 125.033C79.8994 124.091 79.9932 123.297 79.2535 121.866L76.0448 115.622L75.132 116.597L77.7607 121.232L77.6847 121.313L72.8821 119.002L71.9453 120.003L78.1733 122.669L78.3488 122.961C78.6913 123.539 78.6311 123.972 78.2267 124.404C78.1266 124.511 78.0143 124.622 77.9173 124.7L78.6489 125.385C78.7739 125.277 78.9105 125.148 79.0186 125.033ZM83.3564 117.121L86.9595 113.271L86.1338 112.498L83.4275 115.39L78.0795 110.386L77.1827 111.344L83.3564 117.121ZM89.4489 110.79C90.722 109.43 90.5914 107.743 89.094 106.342L89.0854 106.334C87.588 104.932 85.892 104.918 84.6229 106.274C83.3498 107.635 83.4807 109.33 84.9739 110.727L84.9824 110.736C86.4798 112.137 88.1718 112.155 89.4489 110.79ZM88.6745 110.066C87.9259 110.866 86.9023 110.751 85.8712 109.786L85.8626 109.778C84.8315 108.813 84.6487 107.799 85.3973 106.999C86.1419 106.203 87.1696 106.314 88.2007 107.279L88.2092 107.287C89.236 108.248 89.4192 109.27 88.6745 110.066ZM93.7101 106.237C94.3426 105.561 94.4921 104.818 94.1997 104.127L94.2677 104.054L94.9694 104.711L95.8342 103.787L91.1878 99.4388L90.3231 100.363L93.0484 102.913C93.7971 103.614 93.8911 104.448 93.1945 105.192C92.558 105.873 91.913 105.799 91.1429 105.078L88.3534 102.468L87.4846 103.396L90.4923 106.211C91.5919 107.24 92.7292 107.285 93.7101 106.237ZM96.8085 102.745L97.6772 101.817L94.9519 99.2667C94.2032 98.5661 94.1332 97.7062 94.7697 97.0259C95.4063 96.3457 96.0873 96.3811 96.8574 97.1017L99.6469 99.712L100.512 98.7879L97.504 95.9734C96.3959 94.9365 95.239 94.9293 94.2662 95.969C93.6337 96.645 93.5168 97.3701 93.8009 98.0613L93.7368 98.1298L93.0309 97.4692L92.1621 98.3976L96.8085 102.745ZM104.922 97.359C106.155 96.0412 106.26 94.5744 105.203 93.5855L100.651 89.3259L99.7862 90.25L100.548 90.9626L100.496 91.0182C99.7215 90.7993 98.9283 91.0039 98.3197 91.6542C97.1908 92.8607 97.4351 94.4777 98.7614 95.7187L98.77 95.7267C100.079 96.9518 101.688 97.0767 102.805 95.883C103.401 95.2455 103.599 94.4679 103.359 93.7131L103.423 93.6446L104.338 94.5014C104.971 95.0939 104.906 95.8837 104.19 96.6495C103.601 97.2784 103.022 97.4428 102.629 97.2195L102.617 97.2158L101.74 98.1528L101.74 98.1693C102.619 98.7827 103.817 98.5398 104.922 97.359ZM102.279 94.9097C101.538 95.7012 100.519 95.5816 99.6545 94.7729L99.6459 94.7649C98.7817 93.9562 98.5905 92.9428 99.3311 92.1513C100.064 91.3683 101.12 91.4577 101.984 92.2664L101.992 92.2744C102.861 93.0871 103.016 94.1224 102.279 94.9097ZM108.183 90.7698C109.296 89.5804 109.212 88.2981 108.744 87.5716L108.714 87.527L107.881 88.4252L107.9 88.4743C108.035 88.8098 107.998 89.4411 107.441 90.0358C106.725 90.8016 105.751 90.8049 104.845 89.9893L107.928 86.695L107.602 86.3907C106.208 85.0856 104.526 85.0046 103.313 86.301C102.1 87.5973 102.286 89.3447 103.737 90.7018L103.741 90.7058C105.213 92.083 106.91 92.1303 108.183 90.7698ZM104.079 87.0093C104.667 86.3804 105.506 86.2904 106.404 86.9943L104.194 89.356C103.47 88.526 103.486 87.6425 104.079 87.0093ZM108.259 84.1537C108.592 83.7986 108.57 83.2728 108.223 82.9486C107.873 82.6203 107.347 82.6336 107.014 82.9887C106.682 83.3438 106.7 83.8738 107.05 84.2021C107.397 84.5264 107.927 84.5088 108.259 84.1537ZM111.494 87.1803C111.826 86.8252 111.804 86.2994 111.458 85.9752C111.107 85.6469 110.581 85.6602 110.249 86.0153C109.916 86.3704 109.934 86.9005 110.285 87.2287C110.631 87.553 111.161 87.5354 111.494 87.1803ZM116.597 81.598L117.494 80.6396L112.146 75.6353L113.959 73.6972L113.134 72.9245L108.606 77.7634L109.431 78.5361L111.249 76.5937L116.597 81.598ZM120.069 77.8871L120.938 76.9587L118.213 74.4085C117.464 73.7078 117.394 72.8479 118.031 72.1676C118.667 71.4874 119.348 71.5228 120.118 72.2434L122.908 74.8537L123.773 73.9296L120.765 71.1151C119.657 70.0782 118.5 70.071 117.527 71.1107C116.895 71.7867 116.778 72.5119 117.062 73.203L116.998 73.2715L114.469 70.9054L113.601 71.8338L120.069 77.8871ZM126.622 71.0643C127.735 69.8749 127.651 68.5926 127.184 67.866L127.153 67.8215L126.321 68.7196L126.339 68.7688C126.474 69.1042 126.437 69.7356 125.881 70.3303C125.164 71.0961 124.19 71.0994 123.284 70.2838L126.367 66.9894L126.042 66.6852C124.647 65.38 122.965 65.2991 121.752 66.5954C120.539 67.8918 120.726 69.6391 122.176 70.9963L122.18 71.0003C123.652 72.3775 125.349 72.4248 126.622 71.0643ZM122.518 67.3038C123.106 66.6748 123.945 66.5848 124.843 67.2888L122.633 69.6504C121.909 68.8205 121.925 67.937 122.518 67.3038ZM131.264 65.9243L133.349 63.6952C135.071 61.8555 134.93 59.7253 132.97 57.8917L132.962 57.8837C131.023 56.0701 128.889 56.0871 127.176 57.9182L125.09 60.1473L131.264 65.9243ZM131.335 64.1932L126.812 59.9616L127.901 58.7979C129.098 57.5186 130.641 57.542 132.062 58.8712L132.07 58.8792C133.503 60.2203 133.633 61.7374 132.424 63.0295L131.335 64.1932ZM138.821 58.0276C139.934 56.8382 139.85 55.5559 139.383 54.8294L139.352 54.7848L138.52 55.683L138.538 55.7321C138.673 56.0675 138.636 56.6989 138.08 57.2936C137.363 58.0594 136.389 58.0627 135.483 57.2471L138.566 53.9528L138.241 53.6485C136.846 52.3434 135.164 52.2624 133.951 53.5588C132.738 54.8551 132.925 56.6024 134.375 57.9596L134.379 57.9636C135.851 59.3408 137.548 59.3881 138.821 58.0276ZM134.717 54.2671C135.305 53.6382 136.144 53.5481 137.042 54.2521L134.832 56.6138C134.108 55.7838 134.124 54.9003 134.717 54.2671ZM143.319 53.2214C144.396 52.0705 144.396 50.8269 143.649 49.8153L143.619 49.7707L142.786 50.6606L142.799 50.6892C143.16 51.3073 143.089 51.9149 142.544 52.4968C141.828 53.2626 140.759 53.153 139.732 52.1922L139.723 52.1842C138.722 51.2473 138.542 50.2045 139.267 49.4301C139.844 48.814 140.538 48.7578 141.092 49.0835L141.109 49.0912L141.937 48.1973L141.916 48.1773C140.893 47.4609 139.582 47.5418 138.489 48.7098C137.22 50.066 137.367 51.7525 138.839 53.1297L138.847 53.1377C140.349 54.5429 142.05 54.5776 143.319 53.2214ZM145.837 50.3505L146.705 49.4221L145.015 47.8407L144.99 47.0705L148.575 47.4241L149.632 46.2946L145.011 45.8469L144.865 42.0752L143.849 43.1619L144.083 46.8395L144.018 46.9079L140.236 43.3689L139.368 44.2973L145.837 50.3505Z" fill="black"/>
<path d="M241.293 84.8542C242.504 83.5599 242.432 81.8938 241.134 80.6794L240.631 80.209L238.686 82.2876L239.117 82.6913L240.605 81.1011L240.719 81.2079C241.718 82.142 241.774 83.4322 240.84 84.4305C239.816 85.525 238.299 85.4095 236.93 84.1284L236.923 84.1218C235.572 82.8573 235.366 81.3545 236.387 80.2635C237.145 79.4542 238.081 79.2469 239.008 79.7136L239.05 79.7329L239.507 79.2445L239.465 79.2182C238.316 78.524 236.959 78.7453 235.934 79.8398C234.64 81.2232 234.841 83.1096 236.456 84.6209L236.463 84.6276C238.099 86.1589 239.992 86.2446 241.293 84.8542ZM244.985 80.823C245.515 80.2561 245.678 79.5459 245.436 78.8907L245.476 78.8479L246.135 79.4651L246.579 78.9909L243.955 76.5355C243.146 75.7782 242.184 75.8619 241.344 76.7603C240.6 77.5554 240.448 78.5035 240.968 79.1772L240.979 79.1941L241.423 78.7199L241.419 78.7097C241.131 78.2529 241.264 77.6888 241.751 77.1683C242.332 76.5479 242.951 76.4859 243.515 77.013L243.875 77.35L242.832 78.6213C242.062 79.5658 241.987 80.425 242.654 81.0489L242.661 81.0556C243.345 81.6961 244.291 81.5645 244.985 80.823ZM243.104 80.5676L243.097 80.5609C242.662 80.1539 242.71 79.6099 243.277 78.9174L244.26 77.7103L244.706 78.1273C245.315 78.6978 245.299 79.6587 244.655 80.3468C244.171 80.8638 243.543 80.9779 243.104 80.5676ZM248.62 76.8593C248.727 76.7452 248.817 76.6282 248.899 76.5046L248.492 76.1242C248.413 76.2305 248.35 76.3052 248.25 76.4121C247.843 76.8471 247.49 76.8312 247.019 76.3908L244.638 74.1622L245.458 73.2851L245.063 72.9148L244.242 73.7919L243.244 72.8577L242.786 73.3462L243.785 74.2803L243.208 74.8971L243.603 75.2674L244.181 74.6506L246.669 76.9793C247.368 77.6332 247.933 77.5937 248.62 76.8593ZM250.99 74.4058C251.784 73.5573 251.844 72.5638 251.464 71.927L251.445 71.8896L251.001 72.3638L251.013 72.4014C251.196 72.8064 251.099 73.4383 250.576 73.9981C249.862 74.7611 248.863 74.7493 247.951 73.9229L250.65 71.0385L250.45 70.8517C249.313 69.7874 247.949 69.7014 246.985 70.7318C246.021 71.7622 246.185 73.1731 247.383 74.2941L247.39 74.3007C248.595 75.4284 249.982 75.4825 250.99 74.4058ZM247.406 71.1255C248.023 70.4659 248.916 70.4121 249.818 71.1559L247.569 73.559C246.795 72.721 246.785 71.7886 247.406 71.1255ZM256.317 68.7988C257.281 67.7684 257.254 66.346 256.235 65.3918L256.228 65.3852C255.24 64.461 253.852 64.4933 252.952 65.4559C252.481 65.9586 252.278 66.6114 252.422 67.2077L252.379 67.254L250.629 65.229L252.881 62.8224L252.443 62.4121L249.827 65.2073L252.459 68.2048L252.863 67.7734C252.816 67.623 252.791 67.4718 252.786 67.3269C252.745 66.8204 252.929 66.3307 253.306 65.9278C253.99 65.1969 255.043 65.1723 255.791 65.8729L255.798 65.8796C256.554 66.5869 256.592 67.6324 255.888 68.3846C255.275 69.0407 254.377 69.1499 253.779 68.7241L253.75 68.7043L253.313 69.1714L253.352 69.2012C254.206 69.8534 255.449 69.7258 256.317 68.7988ZM260.21 64.5882C261.157 63.5756 261.224 62.24 260.372 61.4426L260.364 61.4359C259.634 60.752 258.675 60.8184 257.897 61.5282L257.883 61.5148C258.365 60.7354 258.33 59.8798 257.695 59.286L257.688 59.2793C256.922 58.562 255.769 58.6936 254.881 59.6419C254.007 60.576 253.966 61.7347 254.688 62.5502L254.72 62.5871L255.16 62.1165L255.128 62.0796C254.633 61.5157 254.689 60.7054 255.309 60.0423C255.943 59.3649 256.711 59.2807 257.288 59.8211L257.295 59.8278C257.862 60.3583 257.822 61.2163 257.181 61.9009L256.62 62.4999L257.038 62.8902L257.615 62.2734C258.382 61.4534 259.238 61.311 259.911 61.9415L259.919 61.9482C260.528 62.5187 260.476 63.4462 259.782 64.1878C259.082 64.9365 258.222 65.0549 257.602 64.6022L257.567 64.5757L257.126 65.0464L257.169 65.0795C258.037 65.7381 259.239 65.6257 260.21 64.5882Z" fill="black"/>
<path d="M266.655 107.454C267.866 106.16 267.794 104.494 266.496 103.28L265.993 102.809L264.048 104.888L264.479 105.292L265.967 103.701L266.082 103.808C267.08 104.742 267.136 106.032 266.202 107.031C265.178 108.125 263.661 108.01 262.292 106.729L262.285 106.722C260.934 105.458 260.728 103.955 261.749 102.864C262.507 102.054 263.443 101.847 264.37 102.314L264.412 102.333L264.869 101.845L264.827 101.819C263.678 101.124 262.321 101.346 261.296 102.44C260.002 103.823 260.203 105.71 261.818 107.221L261.825 107.228C263.461 108.759 265.354 108.845 266.655 107.454ZM270.347 103.423C270.877 102.856 271.04 102.146 270.798 101.491L270.838 101.448L271.497 102.065L271.941 101.591L269.317 99.1358C268.508 98.3785 267.546 98.4622 266.706 99.3606C265.962 100.156 265.81 101.104 266.33 101.778L266.341 101.794L266.785 101.32L266.781 101.31C266.493 100.853 266.626 100.289 267.113 99.7686C267.694 99.1482 268.313 99.0862 268.877 99.6133L269.237 99.9503L268.194 101.222C267.424 102.166 267.349 103.025 268.016 103.649L268.023 103.656C268.707 104.296 269.653 104.165 270.347 103.423ZM268.466 103.168L268.459 103.161C268.024 102.754 268.072 102.21 268.639 101.518L269.622 100.311L270.068 100.728C270.677 101.298 270.661 102.259 270.017 102.947C269.533 103.464 268.905 103.578 268.466 103.168ZM273.982 99.4596C274.089 99.3455 274.179 99.2285 274.261 99.1049L273.854 98.7245C273.775 98.8308 273.712 98.9055 273.612 99.0124C273.205 99.4474 272.852 99.4315 272.381 98.9911L270 96.7625L270.82 95.8854L270.425 95.5151L269.604 96.3922L268.606 95.458L268.149 95.9465L269.147 96.8806L268.57 97.4974L268.965 97.8677L269.543 97.2509L272.031 99.5796C272.73 100.234 273.295 100.194 273.982 99.4596ZM276.352 97.0061C277.146 96.1576 277.206 95.1641 276.826 94.5273L276.807 94.4899L276.363 94.9641L276.375 95.0017C276.558 95.4067 276.461 96.0386 275.938 96.5984C275.224 97.3614 274.225 97.3496 273.313 96.5232L276.012 93.6388L275.812 93.452C274.675 92.3877 273.311 92.3017 272.347 93.3321C271.383 94.3625 271.547 95.7734 272.745 96.8944L272.752 96.9011C273.957 98.0287 275.344 98.0828 276.352 97.0061ZM272.768 93.7258C273.385 93.0662 274.278 93.0124 275.18 93.7563L272.931 96.1593C272.157 95.3213 272.147 94.3889 272.768 93.7258ZM281.679 91.3991C282.643 90.3687 282.616 88.9463 281.597 87.9922L281.59 87.9855C280.602 87.0613 279.214 87.0936 278.314 88.0562C277.843 88.5589 277.64 89.2117 277.784 89.808L277.741 89.8543L275.992 87.8293L278.243 85.4227L277.805 85.0124L275.189 87.8076L277.821 90.8051L278.225 90.3737C278.178 90.2233 278.153 90.0721 278.148 89.9272C278.107 89.4207 278.291 88.931 278.668 88.5281C279.352 87.7972 280.405 87.7726 281.153 88.4732L281.16 88.4799C281.916 89.1872 281.954 90.2327 281.25 90.9849C280.637 91.641 279.739 91.7502 279.141 91.3244L279.112 91.3047L278.675 91.7717L278.714 91.8015C279.569 92.4537 280.811 92.3261 281.679 91.3991ZM285.59 87.219C286.554 86.1886 286.528 84.7662 285.508 83.812L285.501 83.8054C284.514 82.8812 283.126 82.9135 282.225 83.8761C281.755 84.3788 281.552 85.0316 281.696 85.6279L281.653 85.6742L279.903 83.6492L282.155 81.2426L281.716 80.8322L279.101 83.6274L281.733 86.625L282.136 86.1936C282.09 86.0432 282.064 85.892 282.059 85.7471C282.018 85.2406 282.202 84.7509 282.579 84.348C283.263 83.6171 284.316 83.5925 285.065 84.2931L285.072 84.2998C285.828 85.0071 285.866 86.0525 285.162 86.8048C284.548 87.4608 283.65 87.5701 283.052 87.1443L283.024 87.1245L282.587 87.5916L282.626 87.6214C283.48 88.2736 284.723 88.1459 285.59 87.219Z" fill="black"/>
<g filter="url(#filter7_d_139_491)">
<circle cx="170.6" cy="119.44" r="19.1563" transform="rotate(1.10589 170.6 119.44)" fill="white"/>
<path d="M160.747 130.299L170.532 108.151L178.963 130.651L170.248 122.873L160.747 130.299Z" fill="#7B96DC"/>
</g>
</g>
</g>
<defs>
<filter id="filter0_d_139_491" x="0" y="0" width="349" height="179.078" filterUnits="userSpaceOnUse" color-interpolation-filters="sRGB">
<feFlood flood-opacity="0" result="BackgroundImageFix"/>
<feColorMatrix in="SourceAlpha" type="matrix" values="0 0 0 0 0 0 0 0 0 0 0 0 0 0 0 0 0 0 127 0" result="hardAlpha"/>
<feOffset dy="4"/>
<feGaussianBlur stdDeviation="2"/>
<feComposite in2="hardAlpha" operator="out"/>
<feColorMatrix type="matrix" values="0 0 0 0 0 0 0 0 0 0 0 0 0 0 0 0 0 0 0.25 0"/>
<feBlend mode="normal" in2="BackgroundImageFix" result="effect1_dropShadow_139_491"/>
<feBlend mode="normal" in="SourceGraphic" in2="effect1_dropShadow_139_491" result="shape"/>
</filter>
<filter id="filter1_d_139_491" x="217.564" y="-14.3936" width="116.734" height="122.718" filterUnits="userSpaceOnUse" color-interpolation-filters="sRGB">
<feFlood flood-opacity="0" result="BackgroundImageFix"/>
<feColorMatrix in="SourceAlpha" type="matrix" values="0 0 0 0 0 0 0 0 0 0 0 0 0 0 0 0 0 0 127 0" result="hardAlpha"/>
<feOffset dy="4"/>
<feGaussianBlur stdDeviation="2"/>
<feComposite in2="hardAlpha" operator="out"/>
<feColorMatrix type="matrix" values="0 0 0 0 0 0 0 0 0 0 0 0 0 0 0 0 0 0 0.25 0"/>
<feBlend mode="normal" in2="BackgroundImageFix" result="effect1_dropShadow_139_491"/>
<feBlend mode="normal" in="SourceGraphic" in2="effect1_dropShadow_139_491" result="shape"/>
</filter>
<filter id="filter2_d_139_491" x="242.753" y="8.71979" width="116.734" height="122.718" filterUnits="userSpaceOnUse" color-interpolation-filters="sRGB">
<feFlood flood-opacity="0" result="BackgroundImageFix"/>
<feColorMatrix in="SourceAlpha" type="matrix" values="0 0 0 0 0 0 0 0 0 0 0 0 0 0 0 0 0 0 127 0" result="hardAlpha"/>
<feOffset dy="4"/>
<feGaussianBlur stdDeviation="2"/>
<feComposite in2="hardAlpha" operator="out"/>
<feColorMatrix type="matrix" values="0 0 0 0 0 0 0 0 0 0 0 0 0 0 0 0 0 0 0.25 0"/>
<feBlend mode="normal" in2="BackgroundImageFix" result="effect1_dropShadow_139_491"/>
<feBlend mode="normal" in="SourceGraphic" in2="effect1_dropShadow_139_491" result="shape"/>
</filter>
<filter id="filter3_d_139_491" x="52.2327" y="162.514" width="116.734" height="122.718" filterUnits="userSpaceOnUse" color-interpolation-filters="sRGB">
<feFlood flood-opacity="0" result="BackgroundImageFix"/>
<feColorMatrix in="SourceAlpha" type="matrix" values="0 0 0 0 0 0 0 0 0 0 0 0 0 0 0 0 0 0 127 0" result="hardAlpha"/>
<feOffset dy="4"/>
<feGaussianBlur stdDeviation="2"/>
<feComposite in2="hardAlpha" operator="out"/>
<feColorMatrix type="matrix" values="0 0 0 0 0 0 0 0 0 0 0 0 0 0 0 0 0 0 0.25 0"/>
<feBlend mode="normal" in2="BackgroundImageFix" result="effect1_dropShadow_139_491"/>
<feBlend mode="normal" in="SourceGraphic" in2="effect1_dropShadow_139_491" result="shape"/>
</filter>
<filter id="filter4_d_139_491" x="191.801" y="-38.4708" width="116.734" height="122.718" filterUnits="userSpaceOnUse" color-interpolation-filters="sRGB">
<feFlood flood-opacity="0" result="BackgroundImageFix"/>
<feColorMatrix in="SourceAlpha" type="matrix" values="0 0 0 0 0 0 0 0 0 0 0 0 0 0 0 0 0 0 127 0" result="hardAlpha"/>
<feOffset dy="4"/>
<feGaussianBlur stdDeviation="2"/>
<feComposite in2="hardAlpha" operator="out"/>
<feColorMatrix type="matrix" values="0 0 0 0 0 0 0 0 0 0 0 0 0 0 0 0 0 0 0.25 0"/>
<feBlend mode="normal" in2="BackgroundImageFix" result="effect1_dropShadow_139_491"/>
<feBlend mode="normal" in="SourceGraphic" in2="effect1_dropShadow_139_491" result="shape"/>
</filter>
<filter id="filter5_d_139_491" x="26.4696" y="138.437" width="116.734" height="122.718" filterUnits="userSpaceOnUse" color-interpolation-filters="sRGB">
<feFlood flood-opacity="0" result="BackgroundImageFix"/>
<feColorMatrix in="SourceAlpha" type="matrix" values="0 0 0 0 0 0 0 0 0 0 0 0 0 0 0 0 0 0 127 0" result="hardAlpha"/>
<feOffset dy="4"/>
<feGaussianBlur stdDeviation="2"/>
<feComposite in2="hardAlpha" operator="out"/>
<feColorMatrix type="matrix" values="0 0 0 0 0 0 0 0 0 0 0 0 0 0 0 0 0 0 0.25 0"/>
<feBlend mode="normal" in2="BackgroundImageFix" result="effect1_dropShadow_139_491"/>
<feBlend mode="normal" in="SourceGraphic" in2="effect1_dropShadow_139_491" result="shape"/>
</filter>
<filter id="filter6_d_139_491" x="-62.877" y="-19.1855" width="233.875" height="241.489" filterUnits="userSpaceOnUse" color-interpolation-filters="sRGB">
<feFlood flood-opacity="0" result="BackgroundImageFix"/>
<feColorMatrix in="SourceAlpha" type="matrix" values="0 0 0 0 0 0 0 0 0 0 0 0 0 0 0 0 0 0 127 0" result="hardAlpha"/>
<feOffset dy="4"/>
<feGaussianBlur stdDeviation="2"/>
<feComposite in2="hardAlpha" operator="out"/>
<feColorMatrix type="matrix" values="0 0 0 0 0 0 0 0 0 0 0 0 0 0 0 0 0 0 0.25 0"/>
<feBlend mode="normal" in2="BackgroundImageFix" result="effect1_dropShadow_139_491"/>
<feBlend mode="normal" in="SourceGraphic" in2="effect1_dropShadow_139_491" result="shape"/>
</filter>
<filter id="filter7_d_139_491" x="147.444" y="100.283" width="46.3127" height="46.3127" filterUnits="userSpaceOnUse" color-interpolation-filters="sRGB">
<feFlood flood-opacity="0" result="BackgroundImageFix"/>
<feColorMatrix in="SourceAlpha" type="matrix" values="0 0 0 0 0 0 0 0 0 0 0 0 0 0 0 0 0 0 127 0" result="hardAlpha"/>
<feOffset dy="4"/>
<feGaussianBlur stdDeviation="2"/>
<feComposite in2="hardAlpha" operator="out"/>
<feColorMatrix type="matrix" values="0 0 0 0 0 0 0 0 0 0 0 0 0 0 0 0 0 0 0.25 0"/>
<feBlend mode="normal" in2="BackgroundImageFix" result="effect1_dropShadow_139_491"/>
<feBlend mode="normal" in="SourceGraphic" in2="effect1_dropShadow_139_491" result="shape"/>
</filter>
</defs>
</svg>
