<svg width="22" height="22" viewBox="0 0 22 22" fill="none" xmlns="http://www.w3.org/2000/svg">
<mask id="mask0_150_1510" style="mask-type:alpha" maskUnits="userSpaceOnUse" x="0" y="0" width="22" height="22">
<rect width="22" height="22" fill="#387F79"/>
</mask>
<g mask="url(#mask0_150_1510)">
<path d="M8.70825 15.125L15.1249 11L8.70825 6.875V15.125ZM10.9999 20.1667C9.73186 20.1667 8.5402 19.9259 7.42492 19.4443C6.30964 18.9634 5.3395 18.3104 4.5145 17.4854C3.6895 16.6604 3.03653 15.6903 2.55559 14.575C2.07403 13.4597 1.83325 12.2681 1.83325 11C1.83325 9.73194 2.07403 8.54027 2.55559 7.425C3.03653 6.30972 3.6895 5.33958 4.5145 4.51458C5.3395 3.68958 6.30964 3.0363 7.42492 2.55474C8.5402 2.0738 9.73186 1.83333 10.9999 1.83333C12.268 1.83333 13.4596 2.0738 14.5749 2.55474C15.6902 3.0363 16.6603 3.68958 17.4853 4.51458C18.3103 5.33958 18.9633 6.30972 19.4443 7.425C19.9258 8.54027 20.1666 9.73194 20.1666 11C20.1666 12.2681 19.9258 13.4597 19.4443 14.575C18.9633 15.6903 18.3103 16.6604 17.4853 17.4854C16.6603 18.3104 15.6902 18.9634 14.5749 19.4443C13.4596 19.9259 12.268 20.1667 10.9999 20.1667ZM10.9999 18.3333C13.0471 18.3333 14.7812 17.6229 16.202 16.2021C17.6228 14.7812 18.3333 13.0472 18.3333 11C18.3333 8.95277 17.6228 7.21874 16.202 5.79791C14.7812 4.37708 13.0471 3.66666 10.9999 3.66666C8.9527 3.66666 7.21867 4.37708 5.79784 5.79791C4.377 7.21874 3.66659 8.95277 3.66659 11C3.66659 13.0472 4.377 14.7812 5.79784 16.2021C7.21867 17.6229 8.9527 18.3333 10.9999 18.3333Z" fill="#387F79"/>
</g>
</svg>
