<svg width="22" height="22" viewBox="0 0 22 22" fill="none" xmlns="http://www.w3.org/2000/svg">
<mask id="mask0_50_281" style="mask-type:alpha" maskUnits="userSpaceOnUse" x="0" y="0" width="22" height="22">
<rect width="22" height="22" fill="#387F79"/>
</mask>
<g mask="url(#mask0_50_281)">
<path d="M8.7085 15.125L15.1252 11L8.7085 6.875V15.125ZM11.0002 20.1667C9.73211 20.1667 8.54044 19.9259 7.42516 19.4443C6.30989 18.9634 5.33975 18.3104 4.51475 17.4854C3.68975 16.6604 3.03677 15.6903 2.55583 14.575C2.07427 13.4597 1.8335 12.2681 1.8335 11C1.8335 9.73194 2.07427 8.54027 2.55583 7.425C3.03677 6.30972 3.68975 5.33958 4.51475 4.51458C5.33975 3.68958 6.30989 3.0363 7.42516 2.55474C8.54044 2.0738 9.73211 1.83333 11.0002 1.83333C12.2682 1.83333 13.4599 2.0738 14.5752 2.55474C15.6904 3.0363 16.6606 3.68958 17.4856 4.51458C18.3106 5.33958 18.9636 6.30972 19.4445 7.425C19.9261 8.54027 20.1668 9.73194 20.1668 11C20.1668 12.2681 19.9261 13.4597 19.4445 14.575C18.9636 15.6903 18.3106 16.6604 17.4856 17.4854C16.6606 18.3104 15.6904 18.9634 14.5752 19.4443C13.4599 19.9259 12.2682 20.1667 11.0002 20.1667ZM11.0002 18.3333C13.0474 18.3333 14.7814 17.6229 16.2022 16.2021C17.6231 14.7812 18.3335 13.0472 18.3335 11C18.3335 8.95277 17.6231 7.21874 16.2022 5.79791C14.7814 4.37708 13.0474 3.66666 11.0002 3.66666C8.95294 3.66666 7.21891 4.37708 5.79808 5.79791C4.37725 7.21874 3.66683 8.95277 3.66683 11C3.66683 13.0472 4.37725 14.7812 5.79808 16.2021C7.21891 17.6229 8.95294 18.3333 11.0002 18.3333Z" fill="#387F79"/>
</g>
</svg>
