<svg width="22" height="22" viewBox="0 0 22 22" fill="none" xmlns="http://www.w3.org/2000/svg">
<mask id="mask0_150_1417" style="mask-type:alpha" maskUnits="userSpaceOnUse" x="0" y="0" width="22" height="22">
<rect width="22" height="22" fill="#D9D9D9"/>
</mask>
<g mask="url(#mask0_150_1417)">
<path d="M14.6667 18.3333C13.9028 18.3333 13.2535 18.066 12.7187 17.5313C12.184 16.9965 11.9167 16.3472 11.9167 15.5833C11.9167 14.8194 12.184 14.1701 12.7187 13.6354C13.2535 13.1007 13.9028 12.8333 14.6667 12.8333C14.8347 12.8333 14.9951 12.8446 15.1479 12.8672C15.3007 12.8905 15.4458 12.9403 15.5833 13.0167V5.5H20.1667V7.33333H17.4167V15.5833C17.4167 16.3472 17.1493 16.9965 16.6146 17.5313C16.0799 18.066 15.4306 18.3333 14.6667 18.3333ZM2.75 14.6667V12.8333H10.0833V14.6667H2.75ZM2.75 11V9.16667H13.75V11H2.75ZM2.75 7.33333V5.5H13.75V7.33333H2.75Z" fill="#387F79"/>
</g>
</svg>
