<svg width="22" height="22" viewBox="0 0 22 22" fill="none" xmlns="http://www.w3.org/2000/svg">
<mask id="mask0_150_582" style="mask-type:alpha" maskUnits="userSpaceOnUse" x="0" y="0" width="22" height="22">
<rect width="22" height="22" fill="#D9D9D9"/>
</mask>
<g mask="url(#mask0_150_582)">
<path d="M7.10417 20.1667L5.72917 19.1354V15.3542H4.35417C3.95694 15.3542 3.62847 15.2243 3.36875 14.9646C3.10903 14.7049 2.97917 14.3764 2.97917 13.9792V6.64583H2.75C2.55139 6.64583 2.38731 6.58075 2.25775 6.45058C2.12758 6.32103 2.0625 6.15694 2.0625 5.95833C2.0625 5.75972 2.12758 5.59564 2.25775 5.46608C2.38731 5.33592 2.55139 5.27083 2.75 5.27083H5.72917V3.4375H5.04167C4.84306 3.4375 4.67897 3.37242 4.54942 3.24225C4.41925 3.11269 4.35417 2.94861 4.35417 2.75C4.35417 2.55139 4.41925 2.387 4.54942 2.25683C4.67897 2.12728 4.84306 2.0625 5.04167 2.0625H7.79167C7.99028 2.0625 8.15467 2.12728 8.28483 2.25683C8.41439 2.387 8.47917 2.55139 8.47917 2.75C8.47917 2.94861 8.41439 3.11269 8.28483 3.24225C8.15467 3.37242 7.99028 3.4375 7.79167 3.4375H7.10417V5.27083H10.0833C10.2819 5.27083 10.4463 5.33592 10.5765 5.46608C10.7061 5.59564 10.7708 5.75972 10.7708 5.95833C10.7708 6.15694 10.7061 6.32103 10.5765 6.45058C10.4463 6.58075 10.2819 6.64583 10.0833 6.64583H9.85417V13.9792C9.85417 14.3764 9.72431 14.7049 9.46458 14.9646C9.20486 15.2243 8.87639 15.3542 8.47917 15.3542H7.10417V20.1667ZM4.35417 13.9792H8.47917V12.2375H6.64583C6.49306 12.2375 6.36319 12.184 6.25625 12.0771C6.14931 11.9701 6.09583 11.8403 6.09583 11.6875C6.09583 11.5347 6.14931 11.4049 6.25625 11.2979C6.36319 11.191 6.49306 11.1375 6.64583 11.1375H8.47917V9.4875H6.64583C6.49306 9.4875 6.36319 9.43403 6.25625 9.32708C6.14931 9.22014 6.09583 9.09028 6.09583 8.9375C6.09583 8.78472 6.14931 8.65486 6.25625 8.54792C6.36319 8.44097 6.49306 8.3875 6.64583 8.3875H8.47917V6.64583H4.35417V13.9792ZM13.5208 19.9375C13.1236 19.9375 12.7951 19.8076 12.5354 19.5479C12.2757 19.2882 12.1458 18.9597 12.1458 18.5625V12.375C12.1458 11.9319 12.2299 11.5653 12.3979 11.275C12.566 10.9847 12.734 10.7403 12.9021 10.5417C13.0701 10.3431 13.2153 10.1787 13.3375 10.0485C13.4597 9.91894 13.5208 9.77778 13.5208 9.625V8.9375H13.2917C13.0931 8.9375 12.929 8.87242 12.7994 8.74225C12.6693 8.61269 12.6042 8.44861 12.6042 8.25C12.6042 8.05139 12.6693 7.887 12.7994 7.75683C12.929 7.62728 13.0931 7.5625 13.2917 7.5625H17.875C18.0736 7.5625 18.238 7.62728 18.3682 7.75683C18.4977 7.887 18.5625 8.05139 18.5625 8.25C18.5625 8.44861 18.4977 8.61269 18.3682 8.74225C18.238 8.87242 18.0736 8.9375 17.875 8.9375H17.6458V9.625C17.6458 9.77778 17.7106 9.92689 17.8402 10.0723C17.9703 10.2172 18.1271 10.3889 18.3104 10.5875C18.4785 10.7861 18.6389 11.0306 18.7917 11.3208C18.9444 11.6111 19.0208 11.9625 19.0208 12.375V18.5625C19.0208 18.9597 18.891 19.2882 18.6313 19.5479C18.3715 19.8076 18.0431 19.9375 17.6458 19.9375H13.5208ZM13.5208 12.9708H17.6458V12.375C17.6458 12.1153 17.5771 11.8898 17.4396 11.6985C17.3021 11.5078 17.1417 11.3132 16.9583 11.1146C16.8056 10.9312 16.6528 10.725 16.5 10.4958C16.3472 10.2667 16.2708 9.97639 16.2708 9.625V8.9375H14.8958V9.625C14.8958 9.96111 14.8231 10.2437 14.6777 10.4729C14.5328 10.7021 14.3764 10.9083 14.2083 11.0917C14.0403 11.3056 13.8838 11.5078 13.739 11.6985C13.5936 11.8898 13.5208 12.1153 13.5208 12.375V12.9708ZM13.5208 18.5625H17.6458V16.8208H13.5208V18.5625Z" fill="white"/>
</g>
</svg>
